<svg data-v-423bf9ae="" xmlns="http://www.w3.org/2000/svg" viewBox="0 0 31630.382916712762 28536" class="iconAboveSlogan"><!----><defs data-v-423bf9ae=""><linearGradient data-v-423bf9ae="" gradientTransform="rotate(25)" id="32c2de7f-ac1d-42ce-aa30-29a6299656db" x1="0%" y1="0%" x2="100%" y2="0%"><stop data-v-423bf9ae="" offset="0%" style="stop-color: rgb(24, 36, 113); stop-opacity: 1;"></stop><stop data-v-423bf9ae="" offset="100%" style="stop-color: rgb(38, 100, 200); stop-opacity: 1;"></stop></linearGradient></defs><!----><g data-v-423bf9ae="" id="5805fd9d-745c-4cb6-9eda-2dcf8e854a89" fill="#fff" transform="matrix(2.159049946863287,0,0,2.159049946863287,15722.76290612057,28460.00877322244)"><path d="M2.84 7.53L2.84 7.53L2.84 7.53Q2.83 7.57 2.91 7.62L2.91 7.62L2.91 7.62Q2.98 7.64 3.16 7.67L3.16 7.67L3.16 7.67Q3.33 7.70 3.70 7.70L3.70 7.70L3.70 7.70Q4.59 7.70 5.12 7.35L5.12 7.35L5.12 7.35Q5.64 7 5.92 6.47L5.92 6.47L5.92 6.47Q6.20 5.94 6.29 5.29L6.29 5.29L6.29 5.29Q6.37 4.63 6.37 4.05L6.37 4.05L6.37 4.05Q6.37 3.07 6.13 2.35L6.13 2.35L6.13 2.35Q5.89 1.64 5.52 1.18L5.52 1.18L5.52 1.18Q5.15 0.73 4.72 0.51L4.72 0.51L4.72 0.51Q4.28 0.29 3.91 0.29L3.91 0.29L3.91 0.29Q3.57 0.29 3.39 0.35L3.39 0.35L3.39 0.35Q3.21 0.41 3.11 0.48L3.11 0.48L3.11 0.48Q3.00 0.55 2.98 0.64L2.98 0.64L2.98 0.64Q2.93 1.47 2.90 2.37L2.90 2.37L2.90 2.37Q2.87 3.26 2.86 4.15L2.86 4.15L2.86 4.15Q2.84 5.04 2.84 5.90L2.84 5.90L2.84 5.90Q2.84 6.76 2.84 7.53ZM1.48 6.57L1.48 6.57L1.48 6.57Q1.48 5.95 1.46 5.26L1.46 5.26L1.46 5.26Q1.43 4.56 1.39 3.87L1.39 3.87L1.39 3.87Q1.34 3.18 1.29 2.53L1.29 2.53L1.29 2.53Q1.23 1.89 1.16 1.40L1.16 1.40L1.16 1.40Q1.09 0.91 1.02 0.61L1.02 0.61L1.02 0.61Q0.95 0.31 0.90 0.29L0.90 0.29L0.90 0.29Q0.76 0.27 0.61 0.24L0.61 0.24L0.61 0.24Q0.46 0.22 0.32 0.20L0.32 0.20L0.32 0.20Q0.17 0.17 0 0.14L0 0.14L0 0.01L0 0.01Q0.25 0.06 0.55 0.08L0.55 0.08L0.55 0.08Q0.80 0.11 1.13 0.13L1.13 0.13L1.13 0.13Q1.46 0.14 1.82 0.14L1.82 0.14L1.82 0.14Q2.17 0.14 2.46 0.12L2.46 0.12L2.46 0.12Q2.74 0.10 3.05 0.08L3.05 0.08L3.05 0.08Q3.36 0.06 3.75 0.04L3.75 0.04L3.75 0.04Q4.13 0.01 4.68 0.01L4.68 0.01L4.68 0.01Q5.53 0.01 6.22 0.34L6.22 0.34L6.22 0.34Q6.90 0.67 7.38 1.20L7.38 1.20L7.38 1.20Q7.87 1.72 8.12 2.36L8.12 2.36L8.12 2.36Q8.37 3.00 8.37 3.63L8.37 3.63L8.37 3.63Q8.37 4.21 8.23 4.70L8.23 4.70L8.23 4.70Q8.09 5.18 7.87 5.56L7.87 5.56L7.87 5.56Q7.64 5.95 7.35 6.25L7.35 6.25L7.35 6.25Q7.06 6.55 6.76 6.78L6.76 6.78L6.76 6.78Q6.05 7.31 5.15 7.57L5.15 7.57L5.15 7.57Q5.89 7.57 6.45 8.04L6.45 8.04L6.45 8.04Q7 8.50 7.43 9.19L7.43 9.19L7.43 9.19Q7.87 9.88 8.24 10.70L8.24 10.70L8.24 10.70Q8.61 11.52 8.98 12.24L8.98 12.24L8.98 12.24Q9.35 12.95 9.78 13.45L9.78 13.45L9.78 13.45Q10.21 13.94 10.78 14L10.78 14L10.78 14Q9.87 14 9.23 13.87L9.23 13.87L9.23 13.87Q8.60 13.73 8.15 13.49L8.15 13.49L8.15 13.49Q7.71 13.24 7.41 12.90L7.41 12.90L7.41 12.90Q7.11 12.56 6.87 12.14L6.87 12.14L6.87 12.14Q6.64 11.73 6.41 11.26L6.41 11.26L6.41 11.26Q6.19 10.79 5.88 10.29L5.88 10.29L5.88 10.29Q5.39 9.48 5.11 8.99L5.11 8.99L5.11 8.99Q4.83 8.50 4.56 8.25L4.56 8.25L4.56 8.25Q4.28 7.99 3.91 7.92L3.91 7.92L3.91 7.92Q3.53 7.84 2.84 7.84L2.84 7.84L2.84 7.84Q2.84 8.72 2.91 9.76L2.91 9.76L2.91 9.76Q2.98 10.79 3.07 11.68L3.07 11.68L3.07 11.68Q3.16 12.71 3.30 13.73L3.30 13.73L4.26 13.86L4.26 14L3.70 13.93L3.70 13.93Q3.44 13.90 3.10 13.88L3.10 13.88L3.10 13.88Q2.76 13.86 2.38 13.86L2.38 13.86L2.38 13.86Q1.88 13.86 1.50 13.88L1.50 13.88L1.50 13.88Q1.12 13.90 0.87 13.93L0.87 13.93L0.87 13.93Q0.57 13.97 0.38 14L0.38 14L0.38 13.90L0.38 13.90Q0.50 13.87 0.64 13.85L0.64 13.85L0.64 13.85Q0.76 13.82 0.90 13.79L0.90 13.79L0.90 13.79Q1.04 13.76 1.19 13.73L1.19 13.73L1.19 13.73Q1.41 13.71 1.45 11.97L1.45 11.97L1.45 11.97Q1.48 10.23 1.48 6.57ZM16.73 9.52L16.73 9.52L16.73 9.52Q16.84 9.79 17.05 10.30L17.05 10.30L17.05 10.30Q17.26 10.82 17.49 11.35L17.49 11.35L17.49 11.35Q17.72 11.89 17.95 12.29L17.95 12.29L17.95 12.29Q18.17 12.70 18.33 12.73L18.33 12.73L18.33 12.73Q17.91 12.96 17.45 13.30L17.45 13.30L17.45 13.30Q17.00 13.64 16.66 14L16.66 14L16.66 14Q16.59 13.69 16.41 13.14L16.41 13.14L16.41 13.14Q16.23 12.59 15.92 11.93L15.92 11.93L15.92 11.93Q15.65 12.19 15.25 12.55L15.25 12.55L15.25 12.55Q14.84 12.91 14.38 13.23L14.38 13.23L14.38 13.23Q13.92 13.55 13.42 13.78L13.42 13.78L13.42 13.78Q12.92 14 12.47 14L12.47 14L12.47 14Q12.15 14 11.81 13.91L11.81 13.91L11.81 13.91Q11.47 13.82 11.19 13.64L11.19 13.64L11.19 13.64Q10.91 13.47 10.73 13.22L10.73 13.22L10.73 13.22Q10.56 12.96 10.56 12.64L10.56 12.64L10.56 12.64Q10.56 12.25 10.96 11.80L10.96 11.80L10.96 11.80Q11.37 11.35 11.97 10.91L11.97 10.91L11.97 10.91Q12.57 10.47 13.27 10.05L13.27 10.05L13.27 10.05Q13.97 9.63 14.56 9.27L14.56 9.27L14.56 9.27Q14.13 8.72 13.74 8.48L13.74 8.48L13.74 8.48Q13.36 8.23 12.89 8.23L12.89 8.23L12.89 8.23Q12.70 8.23 12.38 8.34L12.38 8.34L12.38 8.34Q12.07 8.46 11.77 8.60L11.77 8.60L11.77 8.60Q11.41 8.75 11.05 8.95L11.05 8.95L11.05 8.95Q11.83 8.41 12.56 7.98L12.56 7.98L12.56 7.98Q12.87 7.80 13.19 7.63L13.19 7.63L13.19 7.63Q13.51 7.46 13.81 7.32L13.81 7.32L13.81 7.32Q14.11 7.18 14.37 7.10L14.37 7.10L14.37 7.10Q14.63 7.01 14.81 7.01L14.81 7.01L14.81 7.01Q15.16 7.01 15.46 7.31L15.46 7.31L15.46 7.31Q15.76 7.62 16.01 8.03L16.01 8.03L16.01 8.03Q16.25 8.44 16.43 8.86L16.43 8.86L16.43 8.86Q16.60 9.28 16.73 9.52ZM13.99 12.64L13.99 12.64L13.99 12.64Q14.32 12.64 14.63 12.54L14.63 12.54L14.63 12.54Q14.94 12.45 15.17 12.26L15.17 12.26L15.17 12.26Q15.40 12.08 15.54 11.83L15.54 11.83L15.54 11.83Q15.68 11.58 15.68 11.28L15.68 11.28L15.68 11.28Q15.57 11.10 15.44 10.88L15.44 10.88L15.44 10.88Q15.32 10.67 15.20 10.47L15.20 10.47L15.20 10.47Q15.09 10.22 14.97 9.99L14.97 9.99L14.97 9.99Q14.85 9.76 14.73 9.60L14.73 9.60L14.73 9.60Q14.42 9.72 13.98 9.92L13.98 9.92L13.98 9.92Q13.54 10.12 13.13 10.39L13.13 10.39L13.13 10.39Q12.73 10.67 12.44 10.99L12.44 10.99L12.44 10.99Q12.15 11.31 12.15 11.66L12.15 11.66L12.15 11.66Q12.15 11.86 12.30 12.03L12.30 12.03L12.30 12.03Q12.45 12.21 12.69 12.34L12.69 12.34L12.69 12.34Q12.94 12.47 13.27 12.56L13.27 12.56L13.27 12.56Q13.61 12.64 13.99 12.64ZM19.11 8.26L19.11 8.26L19.11 8.26Q19.01 8.23 18.93 8.21L18.93 8.21L18.93 8.21Q18.86 8.19 18.80 8.16L18.80 8.16L18.80 8.16Q18.75 8.15 18.69 8.13L18.69 8.13L18.69 8.13Q18.63 8.13 18.79 8.06L18.79 8.06L18.79 8.06Q18.96 7.98 19.21 7.83L19.21 7.83L19.21 7.83Q19.47 7.69 19.77 7.48L19.77 7.48L19.77 7.48Q20.06 7.27 20.27 6.99L20.27 6.99L20.27 6.99Q20.45 7.48 20.72 7.96L20.72 7.96L20.72 7.96Q20.99 8.44 21.31 8.99L21.31 8.99L21.31 8.99Q21.69 8.54 22.12 8.17L22.12 8.17L22.12 8.17Q22.55 7.80 22.96 7.54L22.96 7.54L22.96 7.54Q23.37 7.28 23.73 7.13L23.73 7.13L23.73 7.13Q24.09 6.99 24.33 6.99L24.33 6.99L24.33 6.99Q24.63 6.99 24.93 7.07L24.93 7.07L24.93 7.07Q25.24 7.15 25.51 7.28L25.51 7.28L25.51 7.28Q25.77 7.41 25.99 7.56L25.99 7.56L25.99 7.56Q26.21 7.71 26.32 7.87L26.32 7.87L26.32 7.87Q26.31 8.11 26.07 8.56L26.07 8.56L26.07 8.56Q25.84 9.02 25.49 9.59L25.49 9.59L25.49 9.59Q25.14 10.16 24.72 10.81L24.72 10.81L24.72 10.81Q24.29 11.45 23.87 12.05L23.87 12.05L23.87 12.05Q23.45 12.66 23.08 13.17L23.08 13.17L23.08 13.17Q22.71 13.68 22.47 14L22.47 14L22.47 14Q22.30 13.61 22.02 13.03L22.02 13.03L22.02 13.03Q21.73 12.46 21.38 11.83L21.38 11.83L21.38 11.83Q21.03 11.20 20.66 10.57L20.66 10.57L20.66 10.57Q20.30 9.94 19.98 9.44L19.98 9.44L19.98 9.44Q19.66 8.93 19.43 8.61L19.43 8.61L19.43 8.61Q19.19 8.29 19.11 8.26ZM23.21 7.80L23.21 7.80L23.21 7.80Q23.04 7.80 22.81 7.94L22.81 7.94L22.81 7.94Q22.57 8.08 22.32 8.29L22.32 8.29L22.32 8.29Q22.06 8.50 21.84 8.74L21.84 8.74L21.84 8.74Q21.62 8.97 21.46 9.16L21.46 9.16L21.46 9.16Q21.94 9.98 22.36 10.77L22.36 10.77L22.36 10.77Q22.78 11.55 23.38 12.33L23.38 12.33L23.38 12.33Q23.73 11.94 24.05 11.45L24.05 11.45L24.05 11.45Q24.36 10.95 24.57 10.46L24.57 10.46L24.57 10.46Q24.78 9.97 24.86 9.53L24.86 9.53L24.86 9.53Q24.93 9.09 24.81 8.81L24.81 8.81L24.81 8.81Q24.75 8.64 24.61 8.46L24.61 8.46L24.61 8.46Q24.47 8.27 24.26 8.13L24.26 8.13L24.26 8.13Q24.05 7.98 23.79 7.89L23.79 7.89L23.79 7.89Q23.52 7.80 23.21 7.80ZM32.63 12.49L32.63 12.49L32.63 12.49Q33.04 12.49 33.40 12.38L33.40 12.38L33.40 12.38Q33.75 12.28 34.02 12.14L34.02 12.14L34.02 12.14Q34.33 11.98 34.59 11.79L34.59 11.79L34.59 11.79Q34.22 12.42 33.68 12.91L33.68 12.91L33.68 12.91Q33.24 13.33 32.56 13.67L32.56 13.67L32.56 13.67Q31.88 14.01 30.98 14.01L30.98 14.01L30.98 14.01Q30.34 14.01 29.75 13.79L29.75 13.79L29.75 13.79Q29.16 13.57 28.71 13.15L28.71 13.15L28.71 13.15Q28.25 12.73 27.99 12.12L27.99 12.12L27.99 12.12Q27.72 11.51 27.72 10.75L27.72 10.75L27.72 10.75Q27.72 10.07 27.94 9.54L27.94 9.54L27.94 9.54Q28.15 9.02 28.50 8.62L28.50 8.62L28.50 8.62Q28.85 8.23 29.29 7.97L29.29 7.97L29.29 7.97Q29.72 7.71 30.14 7.55L30.14 7.55L30.14 7.55Q31.49 7 31.98 7L31.98 7L31.98 7Q32.49 7 32.88 7.17L32.88 7.17L32.88 7.17Q33.26 7.35 33.54 7.56L33.54 7.56L33.54 7.56Q33.85 7.81 34.09 8.12L34.09 8.12L29.47 9.98L29.47 9.98Q29.57 10.57 29.75 11.03L29.75 11.03L29.75 11.03Q29.93 11.49 30.28 11.82L30.28 11.82L30.28 11.82Q30.63 12.14 31.19 12.31L31.19 12.31L31.19 12.31Q31.75 12.49 32.63 12.49ZM30.37 7.81L30.37 7.81L30.37 7.81Q30.17 7.81 29.99 7.92L29.99 7.92L29.99 7.92Q29.81 8.02 29.66 8.19L29.66 8.19L29.66 8.19Q29.51 8.36 29.43 8.57L29.43 8.57L29.43 8.57Q29.36 8.78 29.37 8.99L29.37 8.99L29.37 8.99Q29.37 9.21 29.38 9.42L29.38 9.42L29.38 9.42Q29.39 9.63 29.43 9.84L29.43 9.84L31.78 8.76L31.78 8.76Q31.64 8.50 31.43 8.29L31.43 8.29L31.43 8.29Q31.25 8.11 30.98 7.96L30.98 7.96L30.98 7.96Q30.72 7.81 30.37 7.81ZM43.40 10.01L43.40 10.01L43.40 10.01Q43.40 11.00 43.07 11.75L43.07 11.75L43.07 11.75Q42.74 12.50 42.35 13.01L42.35 13.01L42.35 13.01Q41.89 13.59 41.30 14.01L41.30 14.01L41.30 14.01Q41.52 13.66 41.71 13.24L41.71 13.24L41.71 13.24Q41.86 12.88 41.99 12.42L41.99 12.42L41.99 12.42Q42.11 11.96 42.11 11.44L42.11 11.44L42.11 11.44Q42.11 10.81 41.86 10.22L41.86 10.22L41.86 10.22Q41.61 9.63 41.19 9.18L41.19 9.18L41.19 9.18Q40.77 8.72 40.22 8.44L40.22 8.44L40.22 8.44Q39.66 8.16 39.06 8.16L39.06 8.16L39.06 8.16Q38.77 8.16 38.49 8.23L38.49 8.23L38.49 8.23Q38.21 8.30 38.02 8.48L38.02 8.48L38.02 8.48Q38.02 8.78 38.00 9.27L38.00 9.27L38.00 9.27Q37.98 9.77 37.98 10.42L37.98 10.42L37.98 10.42Q37.98 11.06 38.02 11.82L38.02 11.82L38.02 11.82Q38.05 12.57 38.18 13.38L38.18 13.38L38.18 13.38Q37.69 13.38 37.20 13.58L37.20 13.58L37.20 13.58Q36.72 13.78 36.43 14.01L36.43 14.01L36.43 14.01Q36.44 13.75 36.47 13.24L36.47 13.24L36.47 13.24Q36.50 12.73 36.51 12.10L36.51 12.10L36.51 12.10Q36.53 11.48 36.52 10.82L36.52 10.82L36.52 10.82Q36.51 10.16 36.46 9.61L36.46 9.61L36.46 9.61Q36.40 9.06 36.30 8.68L36.30 8.68L36.30 8.68Q36.19 8.30 36.01 8.25L36.01 8.25L36.01 8.25Q35.77 8.15 35.53 8.15L35.53 8.15L35.53 8.15Q35.41 8.15 35.29 8.16L35.29 8.16L35.29 8.16Q35.77 7.85 36.20 7.60L36.20 7.60L36.20 7.60Q36.57 7.39 36.95 7.22L36.95 7.22L36.95 7.22Q37.32 7.04 37.53 7.04L37.53 7.04L37.53 7.04Q37.72 7.04 37.81 7.07L37.81 7.07L37.81 7.07Q37.91 7.10 37.96 7.21L37.96 7.21L37.96 7.21Q38.01 7.32 38.02 7.55L38.02 7.55L38.02 7.55Q38.02 7.77 38.02 8.16L38.02 8.16L38.02 8.16Q38.63 7.62 39.30 7.33L39.30 7.33L39.30 7.33Q39.98 7.04 40.59 7.04L40.59 7.04L40.59 7.04Q41.22 7.04 41.73 7.29L41.73 7.29L41.73 7.29Q42.25 7.55 42.62 7.96L42.62 7.96L42.62 7.96Q42.99 8.37 43.20 8.90L43.20 8.90L43.20 8.90Q43.40 9.44 43.40 10.01ZM53.52 3.82L53.52 3.82L53.52 3.82Q53.52 2.72 53.96 1.98L53.96 1.98L53.96 1.98Q54.40 1.25 55.05 0.81L55.05 0.81L55.05 0.81Q55.69 0.38 56.43 0.20L56.43 0.20L56.43 0.20Q57.18 0.01 57.76 0.01L57.76 0.01L57.76 0.01Q58.24 0.01 58.54 0.08L58.54 0.08L58.54 0.08Q58.84 0.14 59.22 0.14L59.22 0.14L59.22 0.14Q59.43 0.14 59.59 0.13L59.59 0.13L59.59 0.13Q59.75 0.11 59.86 0.08L59.86 0.08L59.86 0.08Q59.99 0.06 60.07 0.01L60.07 0.01L60.07 0.01Q59.63 0.80 59.45 1.67L59.45 1.67L59.45 1.67Q59.28 2.53 59.35 3.22L59.35 3.22L59.22 3.22L59.22 3.22Q59.22 2.67 58.97 2.24L58.97 2.24L58.97 2.24Q58.73 1.81 58.32 1.50L58.32 1.50L58.32 1.50Q57.90 1.20 57.36 1.04L57.36 1.04L57.36 1.04Q56.83 0.87 56.22 0.87L56.22 0.87L56.22 0.87Q56.03 0.87 55.75 0.95L55.75 0.95L55.75 0.95Q55.47 1.04 55.22 1.23L55.22 1.23L55.22 1.23Q54.96 1.43 54.78 1.75L54.78 1.75L54.78 1.75Q54.60 2.07 54.60 2.55L54.60 2.55L54.60 2.55Q54.60 3.18 54.85 3.69L54.85 3.69L54.85 3.69Q55.10 4.20 55.51 4.64L55.51 4.64L55.51 4.64Q55.92 5.08 56.44 5.46L56.44 5.46L56.44 5.46Q56.97 5.84 57.52 6.22L57.52 6.22L57.52 6.22Q58.07 6.59 58.60 6.99L58.60 6.99L58.60 6.99Q59.12 7.39 59.53 7.85L59.53 7.85L59.53 7.85Q59.93 8.32 60.19 8.86L60.19 8.86L60.19 8.86Q60.44 9.41 60.44 10.09L60.44 10.09L60.44 10.09Q60.44 10.89 60.21 11.49L60.21 11.49L60.21 11.49Q59.99 12.10 59.63 12.53L59.63 12.53L59.63 12.53Q59.28 12.96 58.82 13.24L58.82 13.24L58.82 13.24Q58.37 13.52 57.89 13.69L57.89 13.69L57.89 13.69Q57.41 13.86 56.97 13.92L56.97 13.92L56.97 13.92Q56.52 13.99 56.18 13.99L56.18 13.99L56.18 13.99Q55.76 13.99 55.43 13.96L55.43 13.96L55.43 13.96Q55.10 13.94 54.84 13.92L54.84 13.92L54.84 13.92Q54.57 13.89 54.35 13.87L54.35 13.87L54.35 13.87Q54.14 13.85 53.93 13.85L53.93 13.85L53.93 13.85Q53.82 13.85 53.69 13.88L53.69 13.88L53.69 13.88Q53.56 13.92 53.45 13.94L53.45 13.94L53.45 13.94Q53.31 13.99 53.20 14.03L53.20 14.03L53.20 14.03Q53.49 13.73 53.65 13.23L53.65 13.23L53.65 13.23Q53.79 12.80 53.81 12.09L53.81 12.09L53.81 12.09Q53.83 11.38 53.56 10.33L53.56 10.33L53.79 10.33L53.79 10.33Q53.79 10.84 54.11 11.35L54.11 11.35L54.11 11.35Q54.43 11.86 54.96 12.28L54.96 12.28L54.96 12.28Q55.48 12.70 56.14 12.96L56.14 12.96L56.14 12.96Q56.80 13.22 57.46 13.22L57.46 13.22L57.46 13.22Q57.79 13.22 58.14 13.15L58.14 13.15L58.14 13.15Q58.49 13.09 58.78 12.90L58.78 12.90L58.78 12.90Q59.07 12.71 59.25 12.35L59.25 12.35L59.25 12.35Q59.43 11.98 59.43 11.37L59.43 11.37L59.43 11.37Q59.43 10.75 59.18 10.25L59.18 10.25L59.18 10.25Q58.93 9.76 58.51 9.34L58.51 9.34L58.51 9.34Q58.09 8.93 57.56 8.57L57.56 8.57L57.56 8.57Q57.04 8.20 56.48 7.84L56.48 7.84L56.48 7.84Q55.92 7.48 55.39 7.08L55.39 7.08L55.39 7.08Q54.87 6.69 54.45 6.22L54.45 6.22L54.45 6.22Q54.03 5.74 53.77 5.15L53.77 5.15L53.77 5.15Q53.52 4.56 53.52 3.82ZM65.56 7.01L65.56 7.01L65.56 7.01Q66.01 6.99 66.53 7.17L66.53 7.17L66.53 7.17Q67.05 7.36 67.49 7.73L67.49 7.73L67.49 7.73Q67.93 8.11 68.21 8.64L68.21 8.64L68.21 8.64Q68.50 9.17 68.50 9.83L68.50 9.83L68.50 9.83Q68.50 10.58 68.09 11.27L68.09 11.27L68.09 11.27Q67.68 11.96 66.98 12.52L66.98 12.52L66.98 12.52Q66.29 13.08 65.40 13.47L65.40 13.47L65.40 13.47Q64.51 13.87 63.55 14.06L63.55 14.06L63.55 14.06Q63.55 14.07 63.52 14.62L63.52 14.62L63.52 14.62Q63.49 15.18 63.43 16.06L63.43 16.06L63.43 16.06Q63.38 16.94 63.31 18.07L63.31 18.07L63.31 18.07Q63.25 19.19 63.18 20.37L63.18 20.37L63.18 20.37Q63.03 23.13 62.83 26.61L62.83 26.61L62.83 26.61Q62.65 23.94 62.51 21.53L62.51 21.53L62.51 21.53Q62.45 20.51 62.40 19.43L62.40 19.43L62.40 19.43Q62.34 18.35 62.30 17.35L62.30 17.35L62.30 17.35Q62.26 16.34 62.23 15.47L62.23 15.47L62.23 15.47Q62.20 14.60 62.20 13.99L62.20 13.99L62.20 11.19L62.20 11.19Q62.20 10.35 62.12 9.82L62.12 9.82L62.12 9.82Q62.05 9.30 61.94 8.99L61.94 8.99L61.94 8.99Q61.82 8.68 61.70 8.53L61.70 8.53L61.70 8.53Q61.57 8.39 61.47 8.30L61.47 8.30L61.47 8.30Q61.35 8.19 61.17 8.15L61.17 8.15L61.17 8.15Q61.00 8.11 60.83 8.11L60.83 8.11L60.83 8.11Q60.63 8.11 60.44 8.16L60.44 8.16L60.44 8.16Q60.83 8.02 61.21 7.84L61.21 7.84L61.21 7.84Q61.53 7.69 61.88 7.48L61.88 7.48L61.88 7.48Q62.23 7.27 62.51 7.01L62.51 7.01L62.51 7.01Q63.08 7.01 63.32 7.67L63.32 7.67L63.32 7.67Q63.46 7.91 63.46 8.69L63.46 8.69L63.46 8.69Q63.67 8.51 63.94 8.29L63.94 8.29L63.94 8.29Q64.20 8.06 64.48 7.83L64.48 7.83L64.48 7.83Q64.76 7.60 65.04 7.38L65.04 7.38L65.04 7.38Q65.31 7.17 65.56 7.01ZM63.55 13.83L63.55 13.83L63.55 13.83Q64.15 13.71 64.75 13.43L64.75 13.43L64.75 13.43Q65.35 13.16 65.83 12.74L65.83 12.74L65.83 12.74Q66.32 12.32 66.62 11.75L66.62 11.75L66.62 11.75Q66.92 11.19 66.92 10.46L66.92 10.46L66.92 10.46Q66.92 9.91 66.63 9.52L66.63 9.52L66.63 9.52Q66.35 9.13 65.95 8.88L65.95 8.88L65.95 8.88Q65.55 8.62 65.13 8.50L65.13 8.50L65.13 8.50Q64.71 8.39 64.44 8.39L64.44 8.39L64.44 8.39Q64.13 8.39 63.90 8.58L63.90 8.58L63.90 8.58Q63.67 8.78 63.55 9.02L63.55 9.02L63.55 9.02Q63.57 9.44 63.58 9.97L63.58 9.97L63.58 9.97Q63.59 10.50 63.58 11.12L63.58 11.12L63.58 11.12Q63.57 11.73 63.56 12.42L63.56 12.42L63.56 12.42Q63.55 13.10 63.55 13.83ZM74.82 12.49L74.82 12.49L74.82 12.49Q75.22 12.49 75.58 12.38L75.58 12.38L75.58 12.38Q75.94 12.28 76.20 12.14L76.20 12.14L76.20 12.14Q76.51 11.98 76.78 11.79L76.78 11.79L76.78 11.79Q76.40 12.42 75.87 12.91L75.87 12.91L75.87 12.91Q75.42 13.33 74.74 13.67L74.74 13.67L74.74 13.67Q74.06 14.01 73.16 14.01L73.16 14.01L73.16 14.01Q72.52 14.01 71.93 13.79L71.93 13.79L71.93 13.79Q71.34 13.57 70.89 13.15L70.89 13.15L70.89 13.15Q70.43 12.73 70.17 12.12L70.17 12.12L70.17 12.12Q69.90 11.51 69.90 10.75L69.90 10.75L69.90 10.75Q69.90 10.07 70.12 9.54L70.12 9.54L70.12 9.54Q70.34 9.02 70.69 8.62L70.69 8.62L70.69 8.62Q71.04 8.23 71.47 7.97L71.47 7.97L71.47 7.97Q71.90 7.71 72.32 7.55L72.32 7.55L72.32 7.55Q73.67 7 74.16 7L74.16 7L74.16 7Q74.68 7 75.06 7.17L75.06 7.17L75.06 7.17Q75.45 7.35 75.73 7.56L75.73 7.56L75.73 7.56Q76.03 7.81 76.27 8.12L76.27 8.12L71.65 9.98L71.65 9.98Q71.75 10.57 71.93 11.03L71.93 11.03L71.93 11.03Q72.11 11.49 72.46 11.82L72.46 11.82L72.46 11.82Q72.81 12.14 73.37 12.31L73.37 12.31L73.37 12.31Q73.93 12.49 74.82 12.49ZM72.55 7.81L72.55 7.81L72.55 7.81Q72.35 7.81 72.17 7.92L72.17 7.92L72.17 7.92Q71.99 8.02 71.84 8.19L71.84 8.19L71.84 8.19Q71.69 8.36 71.62 8.57L71.62 8.57L71.62 8.57Q71.54 8.78 71.55 8.99L71.55 8.99L71.55 8.99Q71.55 9.21 71.56 9.42L71.56 9.42L71.56 9.42Q71.57 9.63 71.61 9.84L71.61 9.84L73.96 8.76L73.96 8.76Q73.82 8.50 73.61 8.29L73.61 8.29L73.61 8.29Q73.43 8.11 73.16 7.96L73.16 7.96L73.16 7.96Q72.90 7.81 72.55 7.81ZM78.41 6.99L78.41 6.99L78.41 6.99Q78.41 5.42 78.41 4.28L78.41 4.28L78.41 4.28Q78.41 3.14 78.40 2.32L78.40 2.32L78.40 2.32Q78.39 1.50 78.33 0.95L78.33 0.95L78.33 0.95Q78.27 0.41 78.18 0.01L78.18 0.01L78.18 0.01Q79.14 0.01 79.81-0.34L79.81-0.34L79.81-0.34Q80.47-0.70 81.03-1.18L81.03-1.18L81.03-1.18Q80.75-0.77 80.56-0.45L80.56-0.45L80.56-0.45Q80.36-0.13 80.29 0.10L80.29 0.10L80.29 0.10Q80.14 0.59 80.05 1.33L80.05 1.33L80.05 1.33Q79.97 2.07 79.93 2.98L79.93 2.98L79.93 2.98Q79.88 3.89 79.88 4.91L79.88 4.91L79.88 4.91Q79.87 5.94 79.87 6.99L79.87 6.99L79.87 6.99Q79.87 8.05 79.83 8.79L79.83 8.79L79.83 8.79Q79.79 9.52 79.76 10.04L79.76 10.04L79.76 10.04Q79.74 10.57 79.76 10.93L79.76 10.93L79.76 10.93Q79.79 11.28 79.91 11.59L79.91 11.59L79.91 11.59Q80.01 11.79 80.12 11.97L80.12 11.97L80.12 11.97Q80.23 12.15 80.39 12.31L80.39 12.31L80.39 12.31Q80.54 12.47 80.74 12.58L80.74 12.58L80.74 12.58Q80.93 12.68 81.20 12.70L81.20 12.70L81.20 12.70Q80.67 13.08 80.25 13.40L80.25 13.40L80.25 13.40Q79.84 13.72 79.51 14.04L79.51 14.04L79.51 14.04Q79.24 13.90 79.03 13.69L79.03 13.69L79.03 13.69Q78.82 13.47 78.67 13.23L78.67 13.23L78.67 13.23Q78.53 12.99 78.43 12.75L78.43 12.75L78.43 12.75Q78.34 12.52 78.32 12.33L78.32 12.33L78.32 12.33Q78.29 11.80 78.30 11.30L78.30 11.30L78.30 11.30Q78.32 10.79 78.34 10.19L78.34 10.19L78.34 10.19Q78.37 9.59 78.39 8.82L78.39 8.82L78.39 8.82Q78.41 8.05 78.41 6.99ZM82.84 6.99L82.84 6.99L82.84 6.99Q82.84 5.42 82.84 4.28L82.84 4.28L82.84 4.28Q82.84 3.14 82.82 2.32L82.82 2.32L82.82 2.32Q82.81 1.50 82.75 0.95L82.75 0.95L82.75 0.95Q82.70 0.41 82.60 0.01L82.60 0.01L82.60 0.01Q83.57 0.01 84.23-0.34L84.23-0.34L84.23-0.34Q84.90-0.70 85.46-1.18L85.46-1.18L85.46-1.18Q85.18-0.77 84.98-0.45L84.98-0.45L84.98-0.45Q84.78-0.13 84.71 0.10L84.71 0.10L84.71 0.10Q84.56 0.59 84.48 1.33L84.48 1.33L84.48 1.33Q84.39 2.07 84.35 2.98L84.35 2.98L84.35 2.98Q84.31 3.89 84.30 4.91L84.30 4.91L84.30 4.91Q84.29 5.94 84.29 6.99L84.29 6.99L84.29 6.99Q84.29 8.05 84.25 8.79L84.25 8.79L84.25 8.79Q84.21 9.52 84.19 10.04L84.19 10.04L84.19 10.04Q84.17 10.57 84.19 10.93L84.19 10.93L84.19 10.93Q84.21 11.28 84.34 11.59L84.34 11.59L84.34 11.59Q84.43 11.79 84.55 11.97L84.55 11.97L84.55 11.97Q84.66 12.15 84.81 12.31L84.81 12.31L84.81 12.31Q84.97 12.47 85.16 12.58L85.16 12.58L85.16 12.58Q85.36 12.68 85.62 12.70L85.62 12.70L85.62 12.70Q85.09 13.08 84.68 13.40L84.68 13.40L84.68 13.40Q84.27 13.72 83.93 14.04L83.93 14.04L83.93 14.04Q83.66 13.90 83.45 13.69L83.45 13.69L83.45 13.69Q83.24 13.47 83.10 13.23L83.10 13.23L83.10 13.23Q82.95 12.99 82.86 12.75L82.86 12.75L82.86 12.75Q82.77 12.52 82.74 12.33L82.74 12.33L82.74 12.33Q82.71 11.80 82.73 11.30L82.73 11.30L82.73 11.30Q82.74 10.79 82.77 10.19L82.77 10.19L82.77 10.19Q82.80 9.59 82.82 8.82L82.82 8.82L82.82 8.82Q82.84 8.05 82.84 6.99Z"></path></g><!----><g data-v-423bf9ae="" id="1ef1cf64-9cd9-4398-a1d5-a04fd03b222b" transform="matrix(17.777783203125,0,0,17.777783203125,-685.9000634426266,-616.6865736078471)" stroke="none" fill="#fff"><path d="M1816.146 1018.158c-1.868-5.41-5.076-10.236-8.692-14.62-7.221-8.663-15.93-15.93-24.878-22.737-8.454-6.313-16.998-12.627-26.502-17.293-9.89-5.048-20.234-9.107-30.272-13.82-31.095-14.244-63.712-24.81-96.533-34.262-50.284-14.392-101.346-25.878-151.574-40.469-13.353-3.837-27.036-6.42-40.293-10.588-20.45-6.188-38.027-18.707-55.916-29.954-10.14-6.54-20.99-11.922-32.128-16.532-11.696-4.928-23.647-9.243-35.11-14.699 11.645-2.526 23.34-5.626 33.912-11.264-4.94-7.687-8.403-16.163-12.156-24.452-3.775-8.38-8.18-16.715-14.88-23.141.869-2.22 4.264-4.327 2.418-6.887-6.114-6.677-10.372-14.721-14.903-22.482-4.275-7.58-9.566-14.574-15.896-20.552-15.772-15.153-34.9-26.241-54.418-35.83-20.728-10.066-42.245-18.378-63.814-26.429-23.714-8.794-47.928-16.578-70.422-28.29-19.064-9.748-37.34-21.546-58.005-27.734-14.535-4.298-29.795-4.678-44.79-5.916-11.28-.97-22.834-1.879-33.388-6.302-9.731-4.036-17.918-10.985-24.98-18.661-6.99-7.392-13.473-15.3-21.25-21.898-9.085-7.857-18.89-14.8-28.484-22.005-8.89-6.563-17.39-13.632-26.048-20.49-57.506-45.941-114.643-92.37-173.631-136.405-7.557-5.796-15.545-10.991-23.317-16.481-6.955-5.013-14.12-10.055-19.388-16.913-5.332-7.545-8.568-16.288-13.11-24.282-7.54-12.893-15.624-25.458-23.09-38.396-22.561-38.538-42.761-78.598-68.866-114.944-12.876-17.873-27.263-34.769-43.864-49.297-7.21-6.234-14.375-12.558-22.226-17.986-8.948-6.183-18.775-10.9-28.45-15.806-10.531-5.064-21.341-9.85-32.832-12.246-27.99-5.4-57.45-4.57-84.667 4.247-21.772 7.352-42.04 18.457-61.644 30.306-4.798 2.736-9.64 5.575-15.006 7.05-5.405 1.46-10.991.313-16.476.182-2.651-.102-5.285.193-7.92.415-9.157.851-18.252 2.339-27.268 4.139-22.607 4.644-44.749 11.32-66.488 19.019-21.79 7.687-43.346 16.85-62.235 30.351-16.436 11.69-30.618 27.297-38.061 46.254 10.86 2.345 21.852 4.093 32.883 5.427 0 0 47.974 4.35 63.95 5.445 28.33 2.032 56.802 4.196 84.565 10.52 1.152.256 2.35.494 3.378 1.13 5.427 3.049 9.907 7.517 13.665 12.428 6.206 8.215 10.657 17.605 14.165 27.245 4.173 11.616 6.983 23.715 8.437 35.972 3.436 28.192-4.036 56.685 1.13 84.768l.521-.03c.415-6.185 1.118-12.684 4.265-18.148.147 3.032-1.278 5.967-.835 8.993.097 1.363 2.203 2.237 3.174 1.295 1.408-6.881 2.538-13.995 5.853-20.28 1.959 35.546-2.464 71.098-8.76 106.025.636-.676 1.573-2.566 2.68-1.573.391 1.198-.103 2.487-.17 3.725-2.675 20.609-9.079 41.019-7.262 61.997 2.464-4.043 1.885-9.652 5.558-13.087 1.045 4.673 1.147 9.482 1.664 14.228.528 4.173 1.135 8.794 4.195 11.962.965-2.504 1.045-5.694 3.418-7.38.176 4.002-.585 7.948-1.033 11.91-.398 3.606-.807 7.455.857 10.827 1.317-1.243 1.425-3.292 2.606-4.638 1.499.182 1.107 3.185 2.51 3.253 2.02-2.617 1.51-6.955 4.797-8.573.062 7.807-.534 15.681.533 23.454.295 1.919.909 5.177 3.6 4.4 2.27 13.949 8.476 27.314 7.784 41.689-.216 5.57-2.47 10.815-2.754 16.367-1.556 24.663 3.815 49.467 13.864 71.95 7.403 16.97 18.656 31.94 31.067 45.561 5.819 6.273 11.525 12.729 18.298 18.02 10.049 8.187 21.506 15.17 28.966 26.048 5.717 8.147 10.248 17.049 15.562 25.451 6.733 10.515 13.682 20.899 21.267 30.823 7.755 10.015 15.732 19.86 23.561 29.817 13.32 17.033 26.798 34.15 36.92 53.345 11.662 21.801 20.785 44.812 30.982 67.294 14.324 31.044 28.267 62.446 37.397 95.471 14.278 51.704 25.673 104.23 33.19 157.354 1.635 12.751 4.297 25.338 6.37 38.021 1.207 7.871 2.306 15.894 2.454 23.895.117 6.292-2.191 12.393-6.527 16.954-21.942 23.082-44.356 45.745-68.039 67.027-5.922 5.685-13.57 8.799-20.237 13.435-6.328 4.636-6.734 14.043-13.028 18.578-15.262 4.264-31.303 3.181-46.97 4.298-9.747 0-20.035 1.624-29.273-2.2-13.029-4.839-24.162-14.754-38.307-16.31-16.853-.069-31.202 13.705-33.13 30.219 9.204-10.254 21.59-20.338 36.412-16.954 5.414.067 12.656 6.023 7.614 11.303-9.577 11.54-16.21 25.752-15.126 41.15 8.087-8.156 13.772-18.24 21.86-26.328 2.133 4.84 3.418 10.389 7.649 14.01 10.152 1.489 20.406-5.956 30.22-.914 7.647 2.876 15.837-.135 23.586-.846 0 0 .906-.12 2.29-.284 6.766-.798 13.585 1.202 18.808 5.577 1.644 1.377 3.34 2.684 5.196 3.776 10.66.745 21.489.102 32.013-1.726 9.239-1.929 15.195-12.52 25.28-11.167 25.549 2.775 51.505 7.445 77.156 3.452 8.043-5.323 11.065-14.258 11.032-23.399-.01-2.84 1.778-5.375 4.494-6.2 6.436-1.96 12.968-3.056 19.803 1.105 10.944 6.661 6.972 22.268 18.816 25.854.473-9.78-1-15.847-3.979-25.289-5.279-9.915-15.209-18.906-25.97-19.786-17.191-2.47-31.878 8.595-48.054 12.284-10.964 2.944-25.752 9.238-34.653-1.218-3.519-9.239 1.388-18.51 7.58-25.245 22.258-27.025 48.594-53.325 74.245-77.45a54.984 54.984 0 0 0 6.433-7.214c6.415-8.615 12.454-17.479 17.191-27.167 4.15-8.329 6.842-17.339 8.062-26.559 4.241-29.347-.953-58.84-2.197-88.204 5.956 4.287 7.54 12.496 14.018 16.238-.262-1.306-.517-2.595-.438-3.895 1.369.857 2.158 2.328 3.02 3.667 1.653 2.646 3.016 5.457 4.4 8.261.824-.409 2.022-.693 2.022-1.834-.352-2.01-1.726-3.73-1.618-5.819 1.505 1.658 2.367 3.821 4.002 5.4.722.92 1.795 1.226 2.924.817.358-2.76-3.094-4.485-2.276-7.38 2.645 2.509 3.508 6.733 7.193 8.146.113-2.56-.625-5.16-2.663-6.807.307-.199.926-.596 1.238-.79 1.522 1.636 2.27 4.31 4.706 4.866-2.26-8.34-5.11-16.55-8.992-24.276-.625-1.277-2.005-2.805-.517-3.997 1.17 1.442 2.038 4.218 4.445 3.293.454-2.975-1.6-5.428-3.162-7.704.993-.426 1.97.284 2.72.914 2.844 2.68 4.62 6.381 7.823 8.715.965.965 2.396-.387 2.186-1.5-.074-2.321-1.346-4.342-2.43-6.301.914-.256 1.703-.046 2.367.642 2.061 1.873 3.145 4.519 4.922 6.636 1.51-1.022 1.369-2.935 1.573-4.52 7.721 9.817 16.277 18.952 23.828 28.91 1.016-.897 1.856-2.072 3.14-2.611 1.344-.464 2.245 1.01 3.234 1.628l.986-.552c-.116-2.446-2.43-4.99-.496-7.253 1.362 1.192 2.39 2.861 4.144 3.565.046-2.55.04-5.229-1.044-7.58-.415-1.06-2.038-2.236-.613-3.207 1.828 1.022 3.185 2.77 5.217 3.475.716-3.128-1.731-5.4-4.195-6.734 1.26-2.01 3.122.085 4.587.687-2.027-10.049-7.278-19.098-13.387-27.2 1.345-1.516 3.378-.193 5.08-.346-.533-.8-1.1-1.55-1.396-2.43.812.21 1.726.363 2.379 1.005 3.753 3.287 5.61 8.453 10.129 10.917-.614-6.21-4.798-11.06-8.074-16.067.37-.386.755-.755 1.159-1.107 1.59 1.59 2.31 4.275 4.723 4.883-.182-2.657-.431-5.315-.199-7.966 1.618 1.357 2.305 3.43 3.44 5.167.802-.886 1.602-1.772 2.414-2.64.182.329.55.982.732 1.311.681-.658 1.579-1.328 1.425-2.396-.488-2.912-2.663-5.399-2.294-8.476 3.157 1.436 3.884 5.507 7.188 6.75-1.567-13.523-8.641-25.588-10.917-38.94 2.6-1.681 5.876-1.681 8.686-.5 4.973 1.879 9.203 5.206 13.847 7.738 5.79 3.36 11.656 6.71 16.76 11.1 3.219 2.878 6.375 6.108 7.857 10.27 1.635 4.468.778 9.362-.482 13.818-1.533 5.405-3.68 10.742-3.912 16.42-.199 3.667 3.094 6.5 2.856 10.19-.052 1.624-1.266 2.822-2.356 3.883 1.76-.068 4.116.705 3.94 2.901-.733 5.956-4.656 11.486-3.577 17.646 1.084.817 2.015-.517 2.776-1.147-1.028 5.78-1.01 11.69-.647 17.532.982 14.182 4.02 28.097 6.08 42.137 1.965 13.387 4.171 28.087.553 41.309-5.764 21.067-9.64 41.959-14.279 63.224-3.202 14.677-7.223 29.162-11.585 43.533-3.535 11.646-7.298 23.22-11.048 34.799-7.244 17.112-11.268 37.793-27.61 48.886-15.713 11.234-31.915 21.767-47.907 32.58-6.3 4.704-13.666 6.57-21.227 7.867-11.18 1.918-20.772 9.172-25.33 19.56-3.538 8.067-6.312 16.435-7.299 25.274 7.427-10.845 10.883-11.373 15.433-17.777 3.044-6.369 9.903-9.203 16.097-11.583 5.914 2.414 7.139 12.353 14.872 11.023 15.363.735 23.061-15.152 35.274-21.696-5.424 13.087-13.053 25.09-20.016 37.374-1.996 3.456-4.355 6.689-6.823 9.85-11.574 14.828-17.696 33.18-17.618 51.989.033 7.984.316 15.976.54 23.93l3.814-12.332c4.83-18.722 4.794-29.555 19.002-44.532 7.699 2.309 16.657 6.753 23.936.77 12.808-6.195 8.993-24.426 21.591-30.9 13.893-8.259 17.847-24.741 27.68-36.394 16.937 5.774 31.425 21.241 50.811 16.867 2.065-5.18 4.13-10.358 6.09-15.572 15.257-2.695 34.608.84 40.837 16.972 5.39 9.413 5.005 24.076 16.728 28.275.175-25.405-9.554-56.48-36.01-65.23-11.967-5.633-24.04 3.15-36.113 2.45-8.783-7.313-20.506-15.151-18.687-28.31.595-24.46-3.71-49.866 4.69-73.416 3.984-13.988 9.842-27.353 15.643-40.659 2.803-6.429 5.615-12.855 8.249-19.356 2.526-6.234 4.592-12.64 6.465-19.101a216.466 216.466 0 0 1 7.72-22.092c2.431-5.906 7.093-10.924 10.813-16.144 8.205-11.511 16.144-23.283 22.394-35.993 5.082-9.952 8.727-20.58 11.412-31.407 1.516.698 2.367 2.146 3.202 3.531.795 1.334 2.447 1.743 3.923 1.664-.505-26.639-5.456-52.89-8.067-79.347 1.43 1.527 2.89 3.406 5.07 3.826 2.146-.363 2.123-3.14 2.503-4.808 1.777 1.703 3.594 3.565 5.984 4.4 1.101.408 2.373.05 2.97-1.005-3.697-2.039-7.063-5.03-9.084-8.755 1.828.085 3.236 1.499 4.695 2.492 1.033-.102 2.06-.346 3.066-.67.153-.772-.006-1.51-.659-1.947-1.749-1.6-4.212-2.685-4.9-5.144 3.214-.391 4.997 3.117 7.92 3.657 1.204.295 2.118-.676 2.794-1.533-4.582-7.386-13.592-9.794-19.809-15.403-1.68-1.504-3.258-3.548-3.003-5.927 2.742-.346 4.769 1.964 7.364 2.305 1.533-.051 1.612-1.93 1.754-3.072-1.21-.488-3.213-1.635-2.39-3.145.93-.352 1.913 0 2.878.097.642-.965 1.17-2.334.137-3.225-2.39-2.56-7.25-3.696-7.222-7.852 4.087-2.617 8.749-4.331 13.58-4.916 6.467-.721 12.979.29 19.235 1.947 9.896 2.379 18.866 7.375 27.967 11.78 6 3.135 12.257 5.757 18.179 9.067 5.995 3.322 11.905 6.842 18.167 9.669 3.872 1.646 8.034 3.361 12.337 2.714 3.594-.625 6.104-3.571 8.102-6.393 2.742-4.048 5.217-8.323 8.624-11.871 7.17-7.864 16.81-13.166 26.996-16.028 13.7-3.854 28.137-3.962 42.222-2.708 25.838 2.453 50.898 9.555 75.844 16.385 14.353 3.974 29.052 6.478 43.637 9.43 11.73 2.368 23.22 5.763 34.689 9.158 23.918 7.108 48.059 15.017 73.22 15.737 13.28.336 26.713-1.81 38.942-7.125 14.114 6.66 29.596 9.669 43.869 15.942 10.083 4.332 17.992 12.349 27.927 16.959a37.039 37.039 0 0 0 16.243 3.64c1.573-.114 2.645-1.687 2.787-3.158.301-1.447-.238-3.19.937-4.326 13.211 6.898 26.48 13.694 39.543 20.87 11.275 6.387 21.915 13.95 33.78 19.28 4.929-.947 5.9-6.505 8.318-10.065 13.875 7.392 25.253 18.633 39.14 26.02 9.998 5.427 21.699 8.186 33.03 6.267 1.84-4.372 2.578-9.254 5.383-13.177 3.997 3.792 8.692 6.767 13.512 9.401 8.71 4.656 18.196 8.454 28.171 8.897 5.07.125 10.702-1.289 13.813-5.615 3.532-5.138 3.418-11.74 2.657-17.668 9.686 5.66 19.315 11.417 28.995 17.089 6.597-3.39 14.318-4.496 21.58-2.867 7.278 1.51 14.045 4.7 21.017 7.193 6.382 2.345 13.024 4.122 19.831 4.57 1.34.262 1.88-1.294 2.3-2.265 1.124-4.27-.051-8.777 1.084-13.04.295-.994.71-2.13 1.732-2.573 4.632.449 9.02 2.118 13.489 3.339 4.877 1.374 10.265 2.157 15.102.181-.908-2.725-2.06-5.36-3.577-7.778-4.502-7.34-11.633-12.58-19.03-16.725-9.345-5.218-19.372-9.067-28.688-14.324-31.919-16.976-64.62-32.475-95.942-50.569-8.829-5.047-17.379-10.577-26.497-15.096-11.405-5.938-23.135-11.326-33.95-18.32-4.23-2.72-8.198-5.809-12.212-8.818-63.099-47.32-126.668-94.068-191.964-138.323 52.55 8.612 104.799 19.081 156.622 31.316 47.866 11.377 95.42 24.129 142.394 38.782 24.254 7.642 48.695 15.562 74.13 18.088 1.845.472 3.6-1.17 4.093-2.85.68-2.753-.326-5.45-.72-8.158l.797-.776c13.38 1.968 25.904 7.249 38.54 11.807 10.85 3.974 22.216 7.04 33.855 6.955 1.759-5.69 1.447-11.952-.512-17.544z"></path></g><!----><g data-v-423bf9ae="" id="dddafba8-62dd-458d-bbea-cef2652ee776" fill="#fff" transform="matrix(0.588769319266289,0,0,0.588769319266289,15746.891905042241,28558.064299930993)"><path d="M0.76 3.64L0.52 3.64L0.52 3.08L3.62 3.08L3.61 3.64L3.30 3.64L3.30 3.64Q2.47 3.64 2.47 3.94L2.47 3.94L2.47 3.94Q2.47 4.03 2.51 4.09L2.51 4.09L4.93 10.76L7.24 4.85L7.14 4.57L7.14 4.57Q7.11 4.52 7.09 4.44L7.09 4.44L7.09 4.44Q7.07 4.36 7.05 4.31L7.05 4.31L7.05 4.31Q7.03 4.25 7.01 4.22L7.01 4.22L7.01 4.22Q6.99 4.16 6.89 3.96L6.89 3.96L6.89 3.96Q6.81 3.80 6.69 3.71L6.69 3.71L6.69 3.71Q6.61 3.64 6.44 3.64L6.44 3.64L5.76 3.64L5.76 3.08L9.08 3.08L9.08 3.64L8.35 3.64L8.35 3.64Q8.11 3.64 8.05 3.68L8.05 3.68L8.05 3.68Q7.98 3.72 7.98 3.86L7.98 3.86L7.98 3.86Q7.98 4.00 8.23 4.76L8.23 4.76L10.27 10.72L12.77 4.18L12.77 4.18Q12.82 4.01 12.82 3.94L12.82 3.94L12.82 3.94Q12.82 3.75 12.65 3.69L12.65 3.69L12.65 3.69Q12.50 3.64 12.14 3.64L12.14 3.64L11.77 3.64L11.77 3.08L14.17 3.08L14.18 3.64L14.01 3.64L14.01 3.64Q13.67 3.64 13.57 3.77L13.57 3.77L13.57 3.77Q13.45 3.96 13.20 4.60L13.20 4.60L10.11 12.64L9.87 12.64L7.49 5.64L4.77 12.63L4.55 12.63L1.58 4.52L1.58 4.52Q1.37 3.96 1.20 3.79L1.20 3.79L1.20 3.79Q1.05 3.63 0.76 3.64L0.76 3.64ZM21.93 3.64L21.92 3.08L29.13 3.08L29.13 3.08Q29.14 4.14 29.20 5.28L29.20 5.28L28.65 5.30L28.65 5.30Q28.64 4.66 28.58 4.25L28.58 4.25L28.58 4.25Q28.54 3.89 28.49 3.80L28.49 3.80L28.49 3.80Q28.43 3.71 28.31 3.69L28.31 3.69L28.31 3.69Q28.22 3.68 27.63 3.68L27.63 3.68L25.25 3.68L25.25 3.68Q24.71 3.68 24.56 3.77L24.56 3.77L24.56 3.77Q24.44 3.86 24.44 4.33L24.44 4.33L24.44 6.28L24.44 6.28Q24.44 6.69 24.49 6.76L24.49 6.76L24.49 6.76Q24.56 6.84 24.90 6.84L24.90 6.84L27.02 6.84L27.02 6.84Q27.38 6.84 27.46 6.73L27.46 6.73L27.46 6.73Q27.54 6.63 27.55 6.14L27.55 6.14L27.55 5.61L28.06 5.63L28.06 8.97L27.55 8.97L27.55 8.24L27.55 8.24Q27.55 7.66 27.47 7.57L27.47 7.57L27.47 7.57Q27.39 7.46 27.04 7.46L27.04 7.46L24.94 7.46L24.94 7.46Q24.61 7.46 24.52 7.54L24.52 7.54L24.52 7.54Q24.44 7.63 24.44 7.89L24.44 7.89L24.44 11.20L24.44 11.20Q24.44 11.57 24.52 11.67L24.52 11.67L24.52 11.67Q24.61 11.77 24.88 11.77L24.88 11.77L24.88 11.77Q27.80 11.75 28.33 11.69L28.33 11.69L28.33 11.69Q28.85 11.63 28.93 11.38L28.93 11.38L28.94 11.36L28.94 11.35L29.17 10.17L29.65 10.25L29.30 12.41L22.20 12.41L22.20 11.87L22.57 11.87L22.57 11.87Q23.13 11.87 23.21 11.80L23.21 11.80L23.21 11.80Q23.30 11.72 23.30 11.33L23.30 11.33L23.30 4.24L23.30 4.24Q23.30 3.82 23.15 3.73L23.15 3.73L23.15 3.73Q22.98 3.64 22.33 3.64L22.33 3.64L21.93 3.64ZM37.92 3.64L37.52 3.64L37.55 3.08L40.65 3.08L40.65 3.08Q42.39 3.08 43.17 3.75L43.17 3.75L43.17 3.75Q43.94 4.42 43.93 5.37L43.93 5.37L43.93 5.37Q43.93 6.08 43.40 6.60L43.40 6.60L43.40 6.60Q42.84 7.14 42.14 7.35L42.14 7.35L42.14 7.35Q43.22 7.57 43.76 8.34L43.76 8.34L43.76 8.34Q44.28 9.08 44.27 10.01L44.27 10.01L44.27 10.01Q44.27 11.01 43.64 11.59L43.64 11.59L43.64 11.59Q43.04 12.13 42.09 12.28L42.09 12.28L42.09 12.28Q41.17 12.41 39.62 12.41L39.62 12.41L37.64 12.41L37.64 11.87L38.06 11.87L38.06 11.87Q38.42 11.87 38.53 11.80L38.53 11.80L38.53 11.80Q38.64 11.73 38.64 11.46L38.64 11.46L38.64 4.14L38.64 4.14Q38.64 3.81 38.49 3.72L38.49 3.72L38.49 3.72Q38.36 3.64 37.92 3.64L37.92 3.64ZM39.75 7.59L39.75 7.59L39.78 11.35L39.78 11.35Q39.78 11.63 39.95 11.71L39.95 11.71L39.95 11.71Q40.11 11.80 40.69 11.80L40.69 11.80L40.69 11.80Q42.94 11.80 42.94 9.91L42.94 9.91L42.94 9.91Q42.94 9.22 42.62 8.73L42.62 8.73L42.62 8.73Q42.31 8.24 41.78 8.02L41.78 8.02L41.78 8.02Q41.19 7.75 40.76 7.68L40.76 7.68L40.76 7.68Q40.28 7.59 39.75 7.59ZM39.78 4.01L39.78 7.19L41.15 7.19L41.15 7.19Q41.81 7.19 42.23 6.66L42.23 6.66L42.23 6.66Q42.63 6.15 42.64 5.54L42.64 5.54L42.64 5.54Q42.64 4.85 42.05 4.27L42.05 4.27L42.05 4.27Q41.47 3.69 40.20 3.69L40.20 3.69L40.20 3.69Q39.78 3.69 39.78 4.01L39.78 4.01ZM61.93 3.64L61.89 3.08L65.67 3.08L65.67 3.08Q66.99 3.08 67.85 3.19L67.85 3.19L67.85 3.19Q68.67 3.29 69.36 3.69L69.36 3.69L69.36 3.69Q70.31 4.27 70.82 5.24L70.82 5.24L70.82 5.24Q71.31 6.21 71.31 7.39L71.31 7.39L71.31 7.39Q71.31 8.05 71.17 8.65L71.17 8.65L71.17 8.65Q71.01 9.29 70.62 9.98L70.62 9.98L70.62 9.98Q70.19 10.73 69.63 11.21L69.63 11.21L69.63 11.21Q69.00 11.76 68.03 12.08L68.03 12.08L68.03 12.08Q67.03 12.41 65.75 12.41L65.75 12.41L62.14 12.41L62.13 11.87L62.50 11.87L62.50 11.87Q63.02 11.87 63.12 11.79L63.12 11.79L63.12 11.79Q63.23 11.70 63.23 11.25L63.23 11.25L63.23 4.14L63.23 4.14Q63.23 3.77 63.14 3.71L63.14 3.71L63.14 3.71Q63.03 3.64 62.51 3.64L62.51 3.64L61.93 3.64ZM64.37 4.39L64.37 11.22L64.37 11.22Q64.37 11.67 64.53 11.77L64.53 11.77L64.53 11.77Q64.69 11.87 65.56 11.87L65.56 11.87L65.56 11.87Q66.61 11.87 67.40 11.61L67.40 11.61L67.40 11.61Q68.26 11.35 68.69 10.99L68.69 10.99L68.69 10.99Q69.19 10.58 69.49 10.05L69.49 10.05L69.49 10.05Q69.79 9.52 69.92 8.96L69.92 8.96L69.92 8.96Q70.05 8.41 70.05 7.82L70.05 7.82L70.05 7.82Q70.05 7.03 69.78 6.34L69.78 6.34L69.78 6.34Q69.51 5.65 68.99 5.05L68.99 5.05L68.99 5.05Q68.46 4.46 67.55 4.09L67.55 4.09L67.55 4.09Q66.62 3.73 65.46 3.73L65.46 3.73L64.94 3.73L64.94 3.73Q64.58 3.73 64.48 3.85L64.48 3.85L64.48 3.85Q64.37 3.99 64.37 4.39L64.37 4.39ZM79.30 3.64L79.28 3.08L86.50 3.08L86.50 3.08Q86.51 4.14 86.56 5.28L86.56 5.28L86.02 5.30L86.02 5.30Q86.00 4.66 85.95 4.25L85.95 4.25L85.95 4.25Q85.91 3.89 85.85 3.80L85.85 3.80L85.85 3.80Q85.80 3.71 85.68 3.69L85.68 3.69L85.68 3.69Q85.59 3.68 85.00 3.68L85.00 3.68L82.62 3.68L82.62 3.68Q82.07 3.68 81.93 3.77L81.93 3.77L81.93 3.77Q81.81 3.86 81.81 4.33L81.81 4.33L81.81 6.28L81.81 6.28Q81.81 6.69 81.86 6.76L81.86 6.76L81.86 6.76Q81.93 6.84 82.27 6.84L82.27 6.84L84.38 6.84L84.38 6.84Q84.75 6.84 84.83 6.73L84.83 6.73L84.83 6.73Q84.91 6.63 84.92 6.14L84.92 6.14L84.92 5.61L85.43 5.63L85.43 8.97L84.92 8.97L84.92 8.24L84.92 8.24Q84.92 7.66 84.84 7.57L84.84 7.57L84.84 7.57Q84.76 7.46 84.41 7.46L84.41 7.46L82.31 7.46L82.31 7.46Q81.98 7.46 81.89 7.54L81.89 7.54L81.89 7.54Q81.81 7.63 81.81 7.89L81.81 7.89L81.81 11.20L81.81 11.20Q81.81 11.57 81.89 11.67L81.89 11.67L81.89 11.67Q81.98 11.77 82.25 11.77L82.25 11.77L82.25 11.77Q85.17 11.75 85.70 11.69L85.70 11.69L85.70 11.69Q86.21 11.63 86.30 11.38L86.30 11.38L86.30 11.36L86.31 11.35L86.54 10.17L87.01 10.25L86.67 12.41L79.56 12.41L79.56 11.87L79.93 11.87L79.93 11.87Q80.49 11.87 80.58 11.80L80.58 11.80L80.58 11.80Q80.67 11.72 80.67 11.33L80.67 11.33L80.67 4.24L80.67 4.24Q80.67 3.82 80.52 3.73L80.52 3.73L80.52 3.73Q80.35 3.64 79.69 3.64L79.69 3.64L79.30 3.64ZM95.38 3.64L94.89 3.64L94.89 3.08L98.40 3.08L98.39 3.64L97.65 3.64L97.65 3.64Q97.32 3.64 97.32 3.82L97.32 3.82L97.32 3.82Q97.32 3.98 97.51 4.48L97.51 4.48L100.11 10.94L103.05 4.18L103.05 4.18Q103.12 3.97 103.13 3.92L103.13 3.92L103.13 3.92Q103.13 3.79 103.03 3.74L103.03 3.74L103.03 3.74Q102.93 3.68 102.79 3.65L102.79 3.65L102.79 3.65Q102.70 3.64 102.44 3.64L102.44 3.64L101.99 3.64L101.96 3.08L104.80 3.08L104.77 3.64L104.37 3.64L104.37 3.64Q104.05 3.64 103.89 3.83L103.89 3.83L103.89 3.83Q103.81 3.93 103.35 4.94L103.35 4.94L103.35 4.94Q103.13 5.46 103.07 5.57L103.07 5.57L99.93 12.63L99.70 12.63L96.45 4.73L96.45 4.73Q96.13 3.93 95.98 3.79L95.98 3.79L95.98 3.79Q95.83 3.63 95.38 3.64L95.38 3.64ZM112.55 3.64L112.54 3.08L119.75 3.08L119.75 3.08Q119.77 4.14 119.82 5.28L119.82 5.28L119.27 5.30L119.27 5.30Q119.26 4.66 119.21 4.25L119.21 4.25L119.21 4.25Q119.16 3.89 119.11 3.80L119.11 3.80L119.11 3.80Q119.05 3.71 118.94 3.69L118.94 3.69L118.94 3.69Q118.84 3.68 118.25 3.68L118.25 3.68L115.88 3.68L115.88 3.68Q115.33 3.68 115.19 3.77L115.19 3.77L115.19 3.77Q115.06 3.86 115.06 4.33L115.06 4.33L115.06 6.28L115.06 6.28Q115.06 6.69 115.12 6.76L115.12 6.76L115.12 6.76Q115.19 6.84 115.53 6.84L115.53 6.84L117.64 6.84L117.64 6.84Q118.00 6.84 118.08 6.73L118.08 6.73L118.08 6.73Q118.17 6.63 118.17 6.14L118.17 6.14L118.17 5.61L118.69 5.63L118.69 8.97L118.17 8.97L118.17 8.24L118.17 8.24Q118.17 7.66 118.10 7.57L118.10 7.57L118.10 7.57Q118.02 7.46 117.67 7.46L117.67 7.46L115.57 7.46L115.57 7.46Q115.23 7.46 115.15 7.54L115.15 7.54L115.15 7.54Q115.06 7.63 115.06 7.89L115.06 7.89L115.06 11.20L115.06 11.20Q115.06 11.57 115.15 11.67L115.15 11.67L115.15 11.67Q115.23 11.77 115.51 11.77L115.51 11.77L115.51 11.77Q118.43 11.75 118.95 11.69L118.95 11.69L118.95 11.69Q119.47 11.63 119.55 11.38L119.55 11.38L119.56 11.36L119.57 11.35L119.79 10.17L120.27 10.25L119.92 12.41L112.82 12.41L112.82 11.87L113.19 11.87L113.19 11.87Q113.75 11.87 113.83 11.80L113.83 11.80L113.83 11.80Q113.93 11.72 113.93 11.33L113.93 11.33L113.93 4.24L113.93 4.24Q113.93 3.82 113.78 3.73L113.78 3.73L113.78 3.73Q113.61 3.64 112.95 3.64L112.95 3.64L112.55 3.64ZM128.64 3.64L128.15 3.64L128.16 3.08L131.75 3.08L131.75 3.64L131.11 3.64L131.11 3.64Q130.74 3.64 130.62 3.72L130.62 3.72L130.62 3.72Q130.51 3.80 130.51 4.16L130.51 4.16L130.51 11.22L130.51 11.22Q130.51 11.57 130.60 11.67L130.60 11.67L130.60 11.67Q130.68 11.77 130.98 11.77L130.98 11.77L130.98 11.77Q133.85 11.74 134.50 11.63L134.50 11.63L134.50 11.63Q134.72 11.61 134.80 11.39L134.80 11.39L134.80 11.39Q134.88 11.17 135.08 10.05L135.08 10.05L135.57 10.08L135.11 12.41L128.34 12.41L128.33 11.87L128.72 11.87L128.72 11.87Q129.23 11.87 129.29 11.80L129.29 11.80L129.29 11.80Q129.38 11.72 129.38 11.33L129.38 11.33L129.38 4.09L129.38 4.09Q129.38 3.80 129.23 3.72L129.23 3.72L129.23 3.72Q129.08 3.64 128.64 3.64L128.64 3.64ZM143.68 7.83L143.68 7.83L143.68 7.83Q143.68 6.62 144.09 5.68L144.09 5.68L144.09 5.68Q144.50 4.72 145.20 4.12L145.20 4.12L145.20 4.12Q145.89 3.51 146.75 3.19L146.75 3.19L146.75 3.19Q147.59 2.88 148.54 2.88L148.54 2.88L148.54 2.88Q149.80 2.88 150.85 3.40L150.85 3.40L150.85 3.40Q151.93 3.93 152.64 5.07L152.64 5.07L152.64 5.07Q153.34 6.17 153.34 7.75L153.34 7.75L153.34 7.75Q153.34 8.70 153.04 9.54L153.04 9.54L153.04 9.54Q152.73 10.38 152.12 11.10L152.12 11.10L152.12 11.10Q151.52 11.81 150.58 12.22L150.58 12.22L150.58 12.22Q149.62 12.63 148.43 12.64L148.43 12.64L148.43 12.64Q147.29 12.64 146.36 12.23L146.36 12.23L146.36 12.23Q145.42 11.83 144.86 11.14L144.86 11.14L144.86 11.14Q144.29 10.45 143.99 9.60L143.99 9.60L143.99 9.60Q143.68 8.72 143.68 7.83ZM144.94 7.38L144.94 7.38L144.94 7.38Q144.94 8.52 145.37 9.60L145.37 9.60L145.37 9.60Q145.78 10.64 146.71 11.33L146.71 11.33L146.71 11.33Q147.62 12.03 148.80 12.04L148.80 12.04L148.80 12.04Q150.18 12.04 151.12 11.01L151.12 11.01L151.12 11.01Q152.07 9.97 152.07 8.10L152.07 8.10L152.07 8.10Q152.07 5.99 150.90 4.72L150.90 4.72L150.90 4.72Q149.75 3.46 148.24 3.45L148.24 3.45L148.24 3.45Q147.72 3.45 147.18 3.65L147.18 3.65L147.18 3.65Q146.64 3.85 146.13 4.25L146.13 4.25L146.13 4.25Q145.58 4.68 145.26 5.48L145.26 5.48L145.26 5.48Q144.94 6.27 144.94 7.38ZM165.18 12.41L161.46 12.41L161.46 11.87L161.90 11.87L161.90 11.87Q162.27 11.87 162.33 11.81L162.33 11.81L162.33 11.81Q162.39 11.74 162.40 11.46L162.40 11.46L162.40 4.14L162.40 4.14Q162.40 3.81 162.32 3.72L162.32 3.72L162.32 3.72Q162.23 3.64 161.87 3.64L161.87 3.64L161.50 3.64L161.51 3.08L164.40 3.08L164.40 3.08Q165.55 3.08 166.20 3.19L166.20 3.19L166.20 3.19Q166.80 3.28 167.27 3.68L167.27 3.68L167.27 3.68Q168.46 4.64 168.46 6.19L168.46 6.19L168.46 6.19Q168.46 7.23 167.69 7.98L167.69 7.98L167.69 7.98Q166.91 8.74 165.50 8.73L165.50 8.73L165.50 8.73Q165.33 8.73 164.92 8.70L164.92 8.70L164.92 8.70Q164.81 8.69 164.38 8.62L164.38 8.62L164.38 8.62Q164.05 8.55 163.95 8.54L163.95 8.54L163.95 8.54Q163.66 8.47 163.65 8.46L163.65 8.46L163.53 8.44L163.53 11.46L163.53 11.46Q163.53 11.74 163.66 11.81L163.66 11.81L163.66 11.81Q163.77 11.87 164.49 11.87L164.49 11.87L165.18 11.87L165.18 12.41ZM163.53 4.28L163.53 8.02L163.53 8.02Q163.88 8.29 164.85 8.29L164.85 8.29L164.85 8.29Q165.98 8.29 166.56 7.75L166.56 7.75L166.56 7.75Q167.15 7.21 167.15 6.16L167.15 6.16L167.15 6.16Q167.15 4.98 166.24 4.31L166.24 4.31L166.24 4.31Q165.34 3.64 163.95 3.64L163.95 3.64L163.95 3.64Q163.70 3.64 163.62 3.75L163.62 3.75L163.62 3.75Q163.54 3.84 163.53 4.28L163.53 4.28ZM179.60 12.41L176.58 12.41L176.58 11.87L176.72 11.87L176.72 11.87Q177.30 11.87 177.42 11.77L177.42 11.77L177.42 11.77Q177.54 11.68 177.56 11.21L177.56 11.21L177.69 4.38L177.69 4.38Q177.69 4.35 177.69 4.28L177.69 4.28L177.69 4.28Q177.70 4.21 177.70 4.17L177.70 4.17L177.70 4.01L177.70 4.01Q177.70 3.76 177.63 3.71L177.63 3.71L177.63 3.71Q177.53 3.64 177.30 3.64L177.30 3.64L176.59 3.64L176.58 3.08L178.69 3.08L181.88 10.55L185.02 3.08L187.26 3.08L187.26 3.64L186.79 3.64L186.79 3.64Q186.33 3.64 186.21 3.71L186.21 3.71L186.21 3.71Q186.05 3.79 186.05 4.08L186.05 4.08L186.05 11.22L186.05 11.22Q186.05 11.68 186.17 11.77L186.17 11.77L186.17 11.77Q186.28 11.87 186.91 11.87L186.91 11.87L187.19 11.87L187.20 12.41L183.80 12.41L183.78 11.87L184.06 11.87L184.06 11.87Q184.68 11.87 184.80 11.77L184.80 11.77L184.80 11.77Q184.92 11.66 184.92 11.25L184.92 11.25L184.92 4.83L182.77 9.91L181.91 12.02L181.91 12.02Q181.77 12.37 181.73 12.44L181.73 12.44L181.73 12.44Q181.69 12.51 181.62 12.51L181.62 12.51L181.62 12.51Q181.52 12.51 181.07 11.52L181.07 11.52L178.26 5.01L178.20 11.39L178.20 11.39Q178.20 11.74 178.40 11.80L178.40 11.80L178.40 11.80Q178.64 11.87 179.60 11.87L179.60 11.87L179.60 12.41ZM194.94 3.64L194.93 3.08L202.14 3.08L202.14 3.08Q202.15 4.14 202.21 5.28L202.21 5.28L201.66 5.30L201.66 5.30Q201.65 4.66 201.59 4.25L201.59 4.25L201.59 4.25Q201.55 3.89 201.50 3.80L201.50 3.80L201.50 3.80Q201.44 3.71 201.33 3.69L201.33 3.69L201.33 3.69Q201.23 3.68 200.64 3.68L200.64 3.68L198.26 3.68L198.26 3.68Q197.72 3.68 197.57 3.77L197.57 3.77L197.57 3.77Q197.45 3.86 197.45 4.33L197.45 4.33L197.45 6.28L197.45 6.28Q197.45 6.69 197.50 6.76L197.50 6.76L197.50 6.76Q197.57 6.84 197.91 6.84L197.91 6.84L200.03 6.84L200.03 6.84Q200.39 6.84 200.47 6.73L200.47 6.73L200.47 6.73Q200.55 6.63 200.56 6.14L200.56 6.14L200.56 5.61L201.07 5.63L201.07 8.97L200.56 8.97L200.56 8.24L200.56 8.24Q200.56 7.66 200.48 7.57L200.48 7.57L200.48 7.57Q200.40 7.46 200.05 7.46L200.05 7.46L197.96 7.46L197.96 7.46Q197.62 7.46 197.53 7.54L197.53 7.54L197.53 7.54Q197.45 7.63 197.45 7.89L197.45 7.89L197.45 11.20L197.45 11.20Q197.45 11.57 197.53 11.67L197.53 11.67L197.53 11.67Q197.62 11.77 197.89 11.77L197.89 11.77L197.89 11.77Q200.81 11.75 201.34 11.69L201.34 11.69L201.34 11.69Q201.86 11.63 201.94 11.38L201.94 11.38L201.95 11.36L201.95 11.35L202.18 10.17L202.66 10.25L202.31 12.41L195.21 12.41L195.21 11.87L195.58 11.87L195.58 11.87Q196.14 11.87 196.22 11.80L196.22 11.80L196.22 11.80Q196.31 11.72 196.31 11.33L196.31 11.33L196.31 4.24L196.31 4.24Q196.31 3.82 196.16 3.73L196.16 3.73L196.16 3.73Q195.99 3.64 195.34 3.64L195.34 3.64L194.94 3.64ZM210.55 3.64L210.53 3.08L212.71 3.08L218.44 10.48L218.44 4.14L218.44 4.14Q218.44 3.81 218.29 3.72L218.29 3.72L218.29 3.72Q218.13 3.64 217.68 3.64L217.68 3.64L217.18 3.64L217.21 3.08L220.19 3.08L220.19 3.64L219.87 3.64L219.87 3.64Q219.41 3.64 219.26 3.75L219.26 3.75L219.26 3.75Q219.11 3.86 219.11 4.25L219.11 4.25L219.11 12.32L219.11 12.47L219.11 12.47Q219.11 12.52 219.09 12.57L219.09 12.57L219.09 12.57Q219.08 12.61 219.04 12.64L219.04 12.64L219.04 12.64Q219.03 12.65 218.98 12.65L218.98 12.65L218.78 12.65L218.72 12.65L218.70 12.65L218.67 12.64L218.67 12.64Q218.64 12.64 218.63 12.63L218.63 12.63L218.63 12.63Q218.61 12.61 218.61 12.60L218.61 12.60L218.61 12.60Q218.61 12.58 218.60 12.57L218.60 12.57L218.60 12.57Q218.57 12.54 218.54 12.50L218.54 12.50L218.54 12.50Q218.53 12.48 218.51 12.45L218.51 12.45L218.51 12.45Q218.49 12.41 218.48 12.40L218.48 12.40L212.37 4.56L212.44 11.22L212.44 11.22Q212.44 11.67 212.60 11.77L212.60 11.77L212.60 11.77Q212.76 11.87 213.47 11.87L213.47 11.87L213.71 11.87L213.71 12.41L210.77 12.41L210.77 11.87L211.20 11.87L211.20 11.87Q211.57 11.87 211.68 11.76L211.68 11.76L211.68 11.76Q211.78 11.66 211.78 11.25L211.78 11.25L211.78 3.80L211.64 3.64L210.55 3.64ZM228.21 5.35L227.71 5.33L227.71 5.33Q227.83 4.17 227.92 3.08L227.92 3.08L236.00 3.08L236.00 3.08Q235.92 4.13 235.89 4.53L235.89 4.53L235.89 4.53Q235.85 5.26 235.83 5.32L235.83 5.32L235.33 5.30L235.33 5.30Q235.41 4.34 235.41 4.16L235.41 4.16L235.41 4.16Q235.41 3.88 235.27 3.79L235.27 3.79L235.27 3.79Q235.09 3.69 234.69 3.69L234.69 3.69L233.08 3.69L233.08 3.69Q232.58 3.69 232.46 3.79L232.46 3.79L232.46 3.79Q232.36 3.87 232.35 4.36L232.35 4.36L232.35 11.22L232.35 11.22Q232.35 11.66 232.50 11.76L232.50 11.76L232.50 11.76Q232.65 11.87 233.17 11.87L233.17 11.87L233.73 11.87L233.74 12.41L230.05 12.40L230.05 11.87L230.27 11.87L230.27 11.87Q230.94 11.87 231.08 11.79L231.08 11.79L231.08 11.79Q231.23 11.70 231.23 11.28L231.23 11.28L231.23 4.48L231.23 4.48Q231.23 3.92 231.13 3.80L231.13 3.80L231.13 3.80Q231.03 3.69 230.60 3.69L230.60 3.69L229.13 3.69L229.13 3.69Q228.95 3.69 228.88 3.71L228.88 3.71L228.88 3.71Q228.81 3.72 228.70 3.72L228.70 3.72L228.70 3.72Q228.68 3.72 228.56 3.79L228.56 3.79L228.56 3.79Q228.48 3.84 228.45 3.86L228.45 3.86L228.45 3.86Q228.42 3.88 228.38 3.99L228.38 3.99L228.38 3.99Q228.35 4.05 228.33 4.14L228.33 4.14L228.33 4.14Q228.30 4.21 228.28 4.36L228.28 4.36L228.28 4.36Q228.25 4.59 228.25 4.61L228.25 4.61L228.25 4.61Q228.25 4.80 228.24 4.95L228.24 4.95L228.24 4.95Q228.24 5.02 228.23 5.15L228.23 5.15L228.23 5.15Q228.22 5.29 228.21 5.35L228.21 5.35Z"></path></g></svg>