<svg data-v-423bf9ae="" xmlns="http://www.w3.org/2000/svg" viewBox="0 0 184.8578623804424 60" class="font"><!----><!----><!----><g data-v-423bf9ae="" id="ba0543de-6761-44b4-ae13-170715cb79df" fill="black" transform="matrix(2.159049946863287,0,0,2.159049946863287,9.99720199956755e-7,2.54767931984939)"><path d="M2.84 7.53L2.84 7.53L2.84 7.53Q2.83 7.57 2.91 7.62L2.91 7.62L2.91 7.62Q2.98 7.64 3.16 7.67L3.16 7.67L3.16 7.67Q3.33 7.70 3.70 7.70L3.70 7.70L3.70 7.70Q4.59 7.70 5.12 7.35L5.12 7.35L5.12 7.35Q5.64 7 5.92 6.47L5.92 6.47L5.92 6.47Q6.20 5.94 6.29 5.29L6.29 5.29L6.29 5.29Q6.37 4.63 6.37 4.05L6.37 4.05L6.37 4.05Q6.37 3.07 6.13 2.35L6.13 2.35L6.13 2.35Q5.89 1.64 5.52 1.18L5.52 1.18L5.52 1.18Q5.15 0.73 4.72 0.51L4.72 0.51L4.72 0.51Q4.28 0.29 3.91 0.29L3.91 0.29L3.91 0.29Q3.57 0.29 3.39 0.35L3.39 0.35L3.39 0.35Q3.21 0.41 3.11 0.48L3.11 0.48L3.11 0.48Q3.00 0.55 2.98 0.64L2.98 0.64L2.98 0.64Q2.93 1.47 2.90 2.37L2.90 2.37L2.90 2.37Q2.87 3.26 2.86 4.15L2.86 4.15L2.86 4.15Q2.84 5.04 2.84 5.90L2.84 5.90L2.84 5.90Q2.84 6.76 2.84 7.53ZM1.48 6.57L1.48 6.57L1.48 6.57Q1.48 5.95 1.46 5.26L1.46 5.26L1.46 5.26Q1.43 4.56 1.39 3.87L1.39 3.87L1.39 3.87Q1.34 3.18 1.29 2.53L1.29 2.53L1.29 2.53Q1.23 1.89 1.16 1.40L1.16 1.40L1.16 1.40Q1.09 0.91 1.02 0.61L1.02 0.61L1.02 0.61Q0.95 0.31 0.90 0.29L0.90 0.29L0.90 0.29Q0.76 0.27 0.61 0.24L0.61 0.24L0.61 0.24Q0.46 0.22 0.32 0.20L0.32 0.20L0.32 0.20Q0.17 0.17 0 0.14L0 0.14L0 0.01L0 0.01Q0.25 0.06 0.55 0.08L0.55 0.08L0.55 0.08Q0.80 0.11 1.13 0.13L1.13 0.13L1.13 0.13Q1.46 0.14 1.82 0.14L1.82 0.14L1.82 0.14Q2.17 0.14 2.46 0.12L2.46 0.12L2.46 0.12Q2.74 0.10 3.05 0.08L3.05 0.08L3.05 0.08Q3.36 0.06 3.75 0.04L3.75 0.04L3.75 0.04Q4.13 0.01 4.68 0.01L4.68 0.01L4.68 0.01Q5.53 0.01 6.22 0.34L6.22 0.34L6.22 0.34Q6.90 0.67 7.38 1.20L7.38 1.20L7.38 1.20Q7.87 1.72 8.12 2.36L8.12 2.36L8.12 2.36Q8.37 3.00 8.37 3.63L8.37 3.63L8.37 3.63Q8.37 4.21 8.23 4.70L8.23 4.70L8.23 4.70Q8.09 5.18 7.87 5.56L7.87 5.56L7.87 5.56Q7.64 5.95 7.35 6.25L7.35 6.25L7.35 6.25Q7.06 6.55 6.76 6.78L6.76 6.78L6.76 6.78Q6.05 7.31 5.15 7.57L5.15 7.57L5.15 7.57Q5.89 7.57 6.45 8.04L6.45 8.04L6.45 8.04Q7 8.50 7.43 9.19L7.43 9.19L7.43 9.19Q7.87 9.88 8.24 10.70L8.24 10.70L8.24 10.70Q8.61 11.52 8.98 12.24L8.98 12.24L8.98 12.24Q9.35 12.95 9.78 13.45L9.78 13.45L9.78 13.45Q10.21 13.94 10.78 14L10.78 14L10.78 14Q9.87 14 9.23 13.87L9.23 13.87L9.23 13.87Q8.60 13.73 8.15 13.49L8.15 13.49L8.15 13.49Q7.71 13.24 7.41 12.90L7.41 12.90L7.41 12.90Q7.11 12.56 6.87 12.14L6.87 12.14L6.87 12.14Q6.64 11.73 6.41 11.26L6.41 11.26L6.41 11.26Q6.19 10.79 5.88 10.29L5.88 10.29L5.88 10.29Q5.39 9.48 5.11 8.99L5.11 8.99L5.11 8.99Q4.83 8.50 4.56 8.25L4.56 8.25L4.56 8.25Q4.28 7.99 3.91 7.92L3.91 7.92L3.91 7.92Q3.53 7.84 2.84 7.84L2.84 7.84L2.84 7.84Q2.84 8.72 2.91 9.76L2.91 9.76L2.91 9.76Q2.98 10.79 3.07 11.68L3.07 11.68L3.07 11.68Q3.16 12.71 3.30 13.73L3.30 13.73L4.26 13.86L4.26 14L3.70 13.93L3.70 13.93Q3.44 13.90 3.10 13.88L3.10 13.88L3.10 13.88Q2.76 13.86 2.38 13.86L2.38 13.86L2.38 13.86Q1.88 13.86 1.50 13.88L1.50 13.88L1.50 13.88Q1.12 13.90 0.87 13.93L0.87 13.93L0.87 13.93Q0.57 13.97 0.38 14L0.38 14L0.38 13.90L0.38 13.90Q0.50 13.87 0.64 13.85L0.64 13.85L0.64 13.85Q0.76 13.82 0.90 13.79L0.90 13.79L0.90 13.79Q1.04 13.76 1.19 13.73L1.19 13.73L1.19 13.73Q1.41 13.71 1.45 11.97L1.45 11.97L1.45 11.97Q1.48 10.23 1.48 6.57ZM16.73 9.52L16.73 9.52L16.73 9.52Q16.84 9.79 17.05 10.30L17.05 10.30L17.05 10.30Q17.26 10.82 17.49 11.35L17.49 11.35L17.49 11.35Q17.72 11.89 17.95 12.29L17.95 12.29L17.95 12.29Q18.17 12.70 18.33 12.73L18.33 12.73L18.33 12.73Q17.91 12.96 17.45 13.30L17.45 13.30L17.45 13.30Q17.00 13.64 16.66 14L16.66 14L16.66 14Q16.59 13.69 16.41 13.14L16.41 13.14L16.41 13.14Q16.23 12.59 15.92 11.93L15.92 11.93L15.92 11.93Q15.65 12.19 15.25 12.55L15.25 12.55L15.25 12.55Q14.84 12.91 14.38 13.23L14.38 13.23L14.38 13.23Q13.92 13.55 13.42 13.78L13.42 13.78L13.42 13.78Q12.92 14 12.47 14L12.47 14L12.47 14Q12.15 14 11.81 13.91L11.81 13.91L11.81 13.91Q11.47 13.82 11.19 13.64L11.19 13.64L11.19 13.64Q10.91 13.47 10.73 13.22L10.73 13.22L10.73 13.22Q10.56 12.96 10.56 12.64L10.56 12.64L10.56 12.64Q10.56 12.25 10.96 11.80L10.96 11.80L10.96 11.80Q11.37 11.35 11.97 10.91L11.97 10.91L11.97 10.91Q12.57 10.47 13.27 10.05L13.27 10.05L13.27 10.05Q13.97 9.63 14.56 9.27L14.56 9.27L14.56 9.27Q14.13 8.72 13.74 8.48L13.74 8.48L13.74 8.48Q13.36 8.23 12.89 8.23L12.89 8.23L12.89 8.23Q12.70 8.23 12.38 8.34L12.38 8.34L12.38 8.34Q12.07 8.46 11.77 8.60L11.77 8.60L11.77 8.60Q11.41 8.75 11.05 8.95L11.05 8.95L11.05 8.95Q11.83 8.41 12.56 7.98L12.56 7.98L12.56 7.98Q12.87 7.80 13.19 7.63L13.19 7.63L13.19 7.63Q13.51 7.46 13.81 7.32L13.81 7.32L13.81 7.32Q14.11 7.18 14.37 7.10L14.37 7.10L14.37 7.10Q14.63 7.01 14.81 7.01L14.81 7.01L14.81 7.01Q15.16 7.01 15.46 7.31L15.46 7.31L15.46 7.31Q15.76 7.62 16.01 8.03L16.01 8.03L16.01 8.03Q16.25 8.44 16.43 8.86L16.43 8.86L16.43 8.86Q16.60 9.28 16.73 9.52ZM13.99 12.64L13.99 12.64L13.99 12.64Q14.32 12.64 14.63 12.54L14.63 12.54L14.63 12.54Q14.94 12.45 15.17 12.26L15.17 12.26L15.17 12.26Q15.40 12.08 15.54 11.83L15.54 11.83L15.54 11.83Q15.68 11.58 15.68 11.28L15.68 11.28L15.68 11.28Q15.57 11.10 15.44 10.88L15.44 10.88L15.44 10.88Q15.32 10.67 15.20 10.47L15.20 10.47L15.20 10.47Q15.09 10.22 14.97 9.99L14.97 9.99L14.97 9.99Q14.85 9.76 14.73 9.60L14.73 9.60L14.73 9.60Q14.42 9.72 13.98 9.92L13.98 9.92L13.98 9.92Q13.54 10.12 13.13 10.39L13.13 10.39L13.13 10.39Q12.73 10.67 12.44 10.99L12.44 10.99L12.44 10.99Q12.15 11.31 12.15 11.66L12.15 11.66L12.15 11.66Q12.15 11.86 12.30 12.03L12.30 12.03L12.30 12.03Q12.45 12.21 12.69 12.34L12.69 12.34L12.69 12.34Q12.94 12.47 13.27 12.56L13.27 12.56L13.27 12.56Q13.61 12.64 13.99 12.64ZM19.11 8.26L19.11 8.26L19.11 8.26Q19.01 8.23 18.93 8.21L18.93 8.21L18.93 8.21Q18.86 8.19 18.80 8.16L18.80 8.16L18.80 8.16Q18.75 8.15 18.69 8.13L18.69 8.13L18.69 8.13Q18.63 8.13 18.79 8.06L18.79 8.06L18.79 8.06Q18.96 7.98 19.21 7.83L19.21 7.83L19.21 7.83Q19.47 7.69 19.77 7.48L19.77 7.48L19.77 7.48Q20.06 7.27 20.27 6.99L20.27 6.99L20.27 6.99Q20.45 7.48 20.72 7.96L20.72 7.96L20.72 7.96Q20.99 8.44 21.31 8.99L21.31 8.99L21.31 8.99Q21.69 8.54 22.12 8.17L22.12 8.17L22.12 8.17Q22.55 7.80 22.96 7.54L22.96 7.54L22.96 7.54Q23.37 7.28 23.73 7.13L23.73 7.13L23.73 7.13Q24.09 6.99 24.33 6.99L24.33 6.99L24.33 6.99Q24.63 6.99 24.93 7.07L24.93 7.07L24.93 7.07Q25.24 7.15 25.51 7.28L25.51 7.28L25.51 7.28Q25.77 7.41 25.99 7.56L25.99 7.56L25.99 7.56Q26.21 7.71 26.32 7.87L26.32 7.87L26.32 7.87Q26.31 8.11 26.07 8.56L26.07 8.56L26.07 8.56Q25.84 9.02 25.49 9.59L25.49 9.59L25.49 9.59Q25.14 10.16 24.72 10.81L24.72 10.81L24.72 10.81Q24.29 11.45 23.87 12.05L23.87 12.05L23.87 12.05Q23.45 12.66 23.08 13.17L23.08 13.17L23.08 13.17Q22.71 13.68 22.47 14L22.47 14L22.47 14Q22.30 13.61 22.02 13.03L22.02 13.03L22.02 13.03Q21.73 12.46 21.38 11.83L21.38 11.83L21.38 11.83Q21.03 11.20 20.66 10.57L20.66 10.57L20.66 10.57Q20.30 9.94 19.98 9.44L19.98 9.44L19.98 9.44Q19.66 8.93 19.43 8.61L19.43 8.61L19.43 8.61Q19.19 8.29 19.11 8.26ZM23.21 7.80L23.21 7.80L23.21 7.80Q23.04 7.80 22.81 7.94L22.81 7.94L22.81 7.94Q22.57 8.08 22.32 8.29L22.32 8.29L22.32 8.29Q22.06 8.50 21.84 8.74L21.84 8.74L21.84 8.74Q21.62 8.97 21.46 9.16L21.46 9.16L21.46 9.16Q21.94 9.98 22.36 10.77L22.36 10.77L22.36 10.77Q22.78 11.55 23.38 12.33L23.38 12.33L23.38 12.33Q23.73 11.94 24.05 11.45L24.05 11.45L24.05 11.45Q24.36 10.95 24.57 10.46L24.57 10.46L24.57 10.46Q24.78 9.97 24.86 9.53L24.86 9.53L24.86 9.53Q24.93 9.09 24.81 8.81L24.81 8.81L24.81 8.81Q24.75 8.64 24.61 8.46L24.61 8.46L24.61 8.46Q24.47 8.27 24.26 8.13L24.26 8.13L24.26 8.13Q24.05 7.98 23.79 7.89L23.79 7.89L23.79 7.89Q23.52 7.80 23.21 7.80ZM32.63 12.49L32.63 12.49L32.63 12.49Q33.04 12.49 33.40 12.38L33.40 12.38L33.40 12.38Q33.75 12.28 34.02 12.14L34.02 12.14L34.02 12.14Q34.33 11.98 34.59 11.79L34.59 11.79L34.59 11.79Q34.22 12.42 33.68 12.91L33.68 12.91L33.68 12.91Q33.24 13.33 32.56 13.67L32.56 13.67L32.56 13.67Q31.88 14.01 30.98 14.01L30.98 14.01L30.98 14.01Q30.34 14.01 29.75 13.79L29.75 13.79L29.75 13.79Q29.16 13.57 28.71 13.15L28.71 13.15L28.71 13.15Q28.25 12.73 27.99 12.12L27.99 12.12L27.99 12.12Q27.72 11.51 27.72 10.75L27.72 10.75L27.72 10.75Q27.72 10.07 27.94 9.54L27.94 9.54L27.94 9.54Q28.15 9.02 28.50 8.62L28.50 8.62L28.50 8.62Q28.85 8.23 29.29 7.97L29.29 7.97L29.29 7.97Q29.72 7.71 30.14 7.55L30.14 7.55L30.14 7.55Q31.49 7 31.98 7L31.98 7L31.98 7Q32.49 7 32.88 7.17L32.88 7.17L32.88 7.17Q33.26 7.35 33.54 7.56L33.54 7.56L33.54 7.56Q33.85 7.81 34.09 8.12L34.09 8.12L29.47 9.98L29.47 9.98Q29.57 10.57 29.75 11.03L29.75 11.03L29.75 11.03Q29.93 11.49 30.28 11.82L30.28 11.82L30.28 11.82Q30.63 12.14 31.19 12.31L31.19 12.31L31.19 12.31Q31.75 12.49 32.63 12.49ZM30.37 7.81L30.37 7.81L30.37 7.81Q30.17 7.81 29.99 7.92L29.99 7.92L29.99 7.92Q29.81 8.02 29.66 8.19L29.66 8.19L29.66 8.19Q29.51 8.36 29.43 8.57L29.43 8.57L29.43 8.57Q29.36 8.78 29.37 8.99L29.37 8.99L29.37 8.99Q29.37 9.21 29.38 9.42L29.38 9.42L29.38 9.42Q29.39 9.63 29.43 9.84L29.43 9.84L31.78 8.76L31.78 8.76Q31.64 8.50 31.43 8.29L31.43 8.29L31.43 8.29Q31.25 8.11 30.98 7.96L30.98 7.96L30.98 7.96Q30.72 7.81 30.37 7.81ZM43.40 10.01L43.40 10.01L43.40 10.01Q43.40 11.00 43.07 11.75L43.07 11.75L43.07 11.75Q42.74 12.50 42.35 13.01L42.35 13.01L42.35 13.01Q41.89 13.59 41.30 14.01L41.30 14.01L41.30 14.01Q41.52 13.66 41.71 13.24L41.71 13.24L41.71 13.24Q41.86 12.88 41.99 12.42L41.99 12.42L41.99 12.42Q42.11 11.96 42.11 11.44L42.11 11.44L42.11 11.44Q42.11 10.81 41.86 10.22L41.86 10.22L41.86 10.22Q41.61 9.63 41.19 9.18L41.19 9.18L41.19 9.18Q40.77 8.72 40.22 8.44L40.22 8.44L40.22 8.44Q39.66 8.16 39.06 8.16L39.06 8.16L39.06 8.16Q38.77 8.16 38.49 8.23L38.49 8.23L38.49 8.23Q38.21 8.30 38.02 8.48L38.02 8.48L38.02 8.48Q38.02 8.78 38.00 9.27L38.00 9.27L38.00 9.27Q37.98 9.77 37.98 10.42L37.98 10.42L37.98 10.42Q37.98 11.06 38.02 11.82L38.02 11.82L38.02 11.82Q38.05 12.57 38.18 13.38L38.18 13.38L38.18 13.38Q37.69 13.38 37.20 13.58L37.20 13.58L37.20 13.58Q36.72 13.78 36.43 14.01L36.43 14.01L36.43 14.01Q36.44 13.75 36.47 13.24L36.47 13.24L36.47 13.24Q36.50 12.73 36.51 12.10L36.51 12.10L36.51 12.10Q36.53 11.48 36.52 10.82L36.52 10.82L36.52 10.82Q36.51 10.16 36.46 9.61L36.46 9.61L36.46 9.61Q36.40 9.06 36.30 8.68L36.30 8.68L36.30 8.68Q36.19 8.30 36.01 8.25L36.01 8.25L36.01 8.25Q35.77 8.15 35.53 8.15L35.53 8.15L35.53 8.15Q35.41 8.15 35.29 8.16L35.29 8.16L35.29 8.16Q35.77 7.85 36.20 7.60L36.20 7.60L36.20 7.60Q36.57 7.39 36.95 7.22L36.95 7.22L36.95 7.22Q37.32 7.04 37.53 7.04L37.53 7.04L37.53 7.04Q37.72 7.04 37.81 7.07L37.81 7.07L37.81 7.07Q37.91 7.10 37.96 7.21L37.96 7.21L37.96 7.21Q38.01 7.32 38.02 7.55L38.02 7.55L38.02 7.55Q38.02 7.77 38.02 8.16L38.02 8.16L38.02 8.16Q38.63 7.62 39.30 7.33L39.30 7.33L39.30 7.33Q39.98 7.04 40.59 7.04L40.59 7.04L40.59 7.04Q41.22 7.04 41.73 7.29L41.73 7.29L41.73 7.29Q42.25 7.55 42.62 7.96L42.62 7.96L42.62 7.96Q42.99 8.37 43.20 8.90L43.20 8.90L43.20 8.90Q43.40 9.44 43.40 10.01ZM53.52 3.82L53.52 3.82L53.52 3.82Q53.52 2.72 53.96 1.98L53.96 1.98L53.96 1.98Q54.40 1.25 55.05 0.81L55.05 0.81L55.05 0.81Q55.69 0.38 56.43 0.20L56.43 0.20L56.43 0.20Q57.18 0.01 57.76 0.01L57.76 0.01L57.76 0.01Q58.24 0.01 58.54 0.08L58.54 0.08L58.54 0.08Q58.84 0.14 59.22 0.14L59.22 0.14L59.22 0.14Q59.43 0.14 59.59 0.13L59.59 0.13L59.59 0.13Q59.75 0.11 59.86 0.08L59.86 0.08L59.86 0.08Q59.99 0.06 60.07 0.01L60.07 0.01L60.07 0.01Q59.63 0.80 59.45 1.67L59.45 1.67L59.45 1.67Q59.28 2.53 59.35 3.22L59.35 3.22L59.22 3.22L59.22 3.22Q59.22 2.67 58.97 2.24L58.97 2.24L58.97 2.24Q58.73 1.81 58.32 1.50L58.32 1.50L58.32 1.50Q57.90 1.20 57.36 1.04L57.36 1.04L57.36 1.04Q56.83 0.87 56.22 0.87L56.22 0.87L56.22 0.87Q56.03 0.87 55.75 0.95L55.75 0.95L55.75 0.95Q55.47 1.04 55.22 1.23L55.22 1.23L55.22 1.23Q54.96 1.43 54.78 1.75L54.78 1.75L54.78 1.75Q54.60 2.07 54.60 2.55L54.60 2.55L54.60 2.55Q54.60 3.18 54.85 3.69L54.85 3.69L54.85 3.69Q55.10 4.20 55.51 4.64L55.51 4.64L55.51 4.64Q55.92 5.08 56.44 5.46L56.44 5.46L56.44 5.46Q56.97 5.84 57.52 6.22L57.52 6.22L57.52 6.22Q58.07 6.59 58.60 6.99L58.60 6.99L58.60 6.99Q59.12 7.39 59.53 7.85L59.53 7.85L59.53 7.85Q59.93 8.32 60.19 8.86L60.19 8.86L60.19 8.86Q60.44 9.41 60.44 10.09L60.44 10.09L60.44 10.09Q60.44 10.89 60.21 11.49L60.21 11.49L60.21 11.49Q59.99 12.10 59.63 12.53L59.63 12.53L59.63 12.53Q59.28 12.96 58.82 13.24L58.82 13.24L58.82 13.24Q58.37 13.52 57.89 13.69L57.89 13.69L57.89 13.69Q57.41 13.86 56.97 13.92L56.97 13.92L56.97 13.92Q56.52 13.99 56.18 13.99L56.18 13.99L56.18 13.99Q55.76 13.99 55.43 13.96L55.43 13.96L55.43 13.96Q55.10 13.94 54.84 13.92L54.84 13.92L54.84 13.92Q54.57 13.89 54.35 13.87L54.35 13.87L54.35 13.87Q54.14 13.85 53.93 13.85L53.93 13.85L53.93 13.85Q53.82 13.85 53.69 13.88L53.69 13.88L53.69 13.88Q53.56 13.92 53.45 13.94L53.45 13.94L53.45 13.94Q53.31 13.99 53.20 14.03L53.20 14.03L53.20 14.03Q53.49 13.73 53.65 13.23L53.65 13.23L53.65 13.23Q53.79 12.80 53.81 12.09L53.81 12.09L53.81 12.09Q53.83 11.38 53.56 10.33L53.56 10.33L53.79 10.33L53.79 10.33Q53.79 10.84 54.11 11.35L54.11 11.35L54.11 11.35Q54.43 11.86 54.96 12.28L54.96 12.28L54.96 12.28Q55.48 12.70 56.14 12.96L56.14 12.96L56.14 12.96Q56.80 13.22 57.46 13.22L57.46 13.22L57.46 13.22Q57.79 13.22 58.14 13.15L58.14 13.15L58.14 13.15Q58.49 13.09 58.78 12.90L58.78 12.90L58.78 12.90Q59.07 12.71 59.25 12.35L59.25 12.35L59.25 12.35Q59.43 11.98 59.43 11.37L59.43 11.37L59.43 11.37Q59.43 10.75 59.18 10.25L59.18 10.25L59.18 10.25Q58.93 9.76 58.51 9.34L58.51 9.34L58.51 9.34Q58.09 8.93 57.56 8.57L57.56 8.57L57.56 8.57Q57.04 8.20 56.48 7.84L56.48 7.84L56.48 7.84Q55.92 7.48 55.39 7.08L55.39 7.08L55.39 7.08Q54.87 6.69 54.45 6.22L54.45 6.22L54.45 6.22Q54.03 5.74 53.77 5.15L53.77 5.15L53.77 5.15Q53.52 4.56 53.52 3.82ZM65.56 7.01L65.56 7.01L65.56 7.01Q66.01 6.99 66.53 7.17L66.53 7.17L66.53 7.17Q67.05 7.36 67.49 7.73L67.49 7.73L67.49 7.73Q67.93 8.11 68.21 8.64L68.21 8.64L68.21 8.64Q68.50 9.17 68.50 9.83L68.50 9.83L68.50 9.83Q68.50 10.58 68.09 11.27L68.09 11.27L68.09 11.27Q67.68 11.96 66.98 12.52L66.98 12.52L66.98 12.52Q66.29 13.08 65.40 13.47L65.40 13.47L65.40 13.47Q64.51 13.87 63.55 14.06L63.55 14.06L63.55 14.06Q63.55 14.07 63.52 14.62L63.52 14.62L63.52 14.62Q63.49 15.18 63.43 16.06L63.43 16.06L63.43 16.06Q63.38 16.94 63.31 18.07L63.31 18.07L63.31 18.07Q63.25 19.19 63.18 20.37L63.18 20.37L63.18 20.37Q63.03 23.13 62.83 26.61L62.83 26.61L62.83 26.61Q62.65 23.94 62.51 21.53L62.51 21.53L62.51 21.53Q62.45 20.51 62.40 19.43L62.40 19.43L62.40 19.43Q62.34 18.35 62.30 17.35L62.30 17.35L62.30 17.35Q62.26 16.34 62.23 15.47L62.23 15.47L62.23 15.47Q62.20 14.60 62.20 13.99L62.20 13.99L62.20 11.19L62.20 11.19Q62.20 10.35 62.12 9.82L62.12 9.82L62.12 9.82Q62.05 9.30 61.94 8.99L61.94 8.99L61.94 8.99Q61.82 8.68 61.70 8.53L61.70 8.53L61.70 8.53Q61.57 8.39 61.47 8.30L61.47 8.30L61.47 8.30Q61.35 8.19 61.17 8.15L61.17 8.15L61.17 8.15Q61.00 8.11 60.83 8.11L60.83 8.11L60.83 8.11Q60.63 8.11 60.44 8.16L60.44 8.16L60.44 8.16Q60.83 8.02 61.21 7.84L61.21 7.84L61.21 7.84Q61.53 7.69 61.88 7.48L61.88 7.48L61.88 7.48Q62.23 7.27 62.51 7.01L62.51 7.01L62.51 7.01Q63.08 7.01 63.32 7.67L63.32 7.67L63.32 7.67Q63.46 7.91 63.46 8.69L63.46 8.69L63.46 8.69Q63.67 8.51 63.94 8.29L63.94 8.29L63.94 8.29Q64.20 8.06 64.48 7.83L64.48 7.83L64.48 7.83Q64.76 7.60 65.04 7.38L65.04 7.38L65.04 7.38Q65.31 7.17 65.56 7.01ZM63.55 13.83L63.55 13.83L63.55 13.83Q64.15 13.71 64.75 13.43L64.75 13.43L64.75 13.43Q65.35 13.16 65.83 12.74L65.83 12.74L65.83 12.74Q66.32 12.32 66.62 11.75L66.62 11.75L66.62 11.75Q66.92 11.19 66.92 10.46L66.92 10.46L66.92 10.46Q66.92 9.91 66.63 9.52L66.63 9.52L66.63 9.52Q66.35 9.13 65.95 8.88L65.95 8.88L65.95 8.88Q65.55 8.62 65.13 8.50L65.13 8.50L65.13 8.50Q64.71 8.39 64.44 8.39L64.44 8.39L64.44 8.39Q64.13 8.39 63.90 8.58L63.90 8.58L63.90 8.58Q63.67 8.78 63.55 9.02L63.55 9.02L63.55 9.02Q63.57 9.44 63.58 9.97L63.58 9.97L63.58 9.97Q63.59 10.50 63.58 11.12L63.58 11.12L63.58 11.12Q63.57 11.73 63.56 12.42L63.56 12.42L63.56 12.42Q63.55 13.10 63.55 13.83ZM74.82 12.49L74.82 12.49L74.82 12.49Q75.22 12.49 75.58 12.38L75.58 12.38L75.58 12.38Q75.94 12.28 76.20 12.14L76.20 12.14L76.20 12.14Q76.51 11.98 76.78 11.79L76.78 11.79L76.78 11.79Q76.40 12.42 75.87 12.91L75.87 12.91L75.87 12.91Q75.42 13.33 74.74 13.67L74.74 13.67L74.74 13.67Q74.06 14.01 73.16 14.01L73.16 14.01L73.16 14.01Q72.52 14.01 71.93 13.79L71.93 13.79L71.93 13.79Q71.34 13.57 70.89 13.15L70.89 13.15L70.89 13.15Q70.43 12.73 70.17 12.12L70.17 12.12L70.17 12.12Q69.90 11.51 69.90 10.75L69.90 10.75L69.90 10.75Q69.90 10.07 70.12 9.54L70.12 9.54L70.12 9.54Q70.34 9.02 70.69 8.62L70.69 8.62L70.69 8.62Q71.04 8.23 71.47 7.97L71.47 7.97L71.47 7.97Q71.90 7.71 72.32 7.55L72.32 7.55L72.32 7.55Q73.67 7 74.16 7L74.16 7L74.16 7Q74.68 7 75.06 7.17L75.06 7.17L75.06 7.17Q75.45 7.35 75.73 7.56L75.73 7.56L75.73 7.56Q76.03 7.81 76.27 8.12L76.27 8.12L71.65 9.98L71.65 9.98Q71.75 10.57 71.93 11.03L71.93 11.03L71.93 11.03Q72.11 11.49 72.46 11.82L72.46 11.82L72.46 11.82Q72.81 12.14 73.37 12.31L73.37 12.31L73.37 12.31Q73.93 12.49 74.82 12.49ZM72.55 7.81L72.55 7.81L72.55 7.81Q72.35 7.81 72.17 7.92L72.17 7.92L72.17 7.92Q71.99 8.02 71.84 8.19L71.84 8.19L71.84 8.19Q71.69 8.36 71.62 8.57L71.62 8.57L71.62 8.57Q71.54 8.78 71.55 8.99L71.55 8.99L71.55 8.99Q71.55 9.21 71.56 9.42L71.56 9.42L71.56 9.42Q71.57 9.63 71.61 9.84L71.61 9.84L73.96 8.76L73.96 8.76Q73.82 8.50 73.61 8.29L73.61 8.29L73.61 8.29Q73.43 8.11 73.16 7.96L73.16 7.96L73.16 7.96Q72.90 7.81 72.55 7.81ZM78.41 6.99L78.41 6.99L78.41 6.99Q78.41 5.42 78.41 4.28L78.41 4.28L78.41 4.28Q78.41 3.14 78.40 2.32L78.40 2.32L78.40 2.32Q78.39 1.50 78.33 0.95L78.33 0.95L78.33 0.95Q78.27 0.41 78.18 0.01L78.18 0.01L78.18 0.01Q79.14 0.01 79.81-0.34L79.81-0.34L79.81-0.34Q80.47-0.70 81.03-1.18L81.03-1.18L81.03-1.18Q80.75-0.77 80.56-0.45L80.56-0.45L80.56-0.45Q80.36-0.13 80.29 0.10L80.29 0.10L80.29 0.10Q80.14 0.59 80.05 1.33L80.05 1.33L80.05 1.33Q79.97 2.07 79.93 2.98L79.93 2.98L79.93 2.98Q79.88 3.89 79.88 4.91L79.88 4.91L79.88 4.91Q79.87 5.94 79.87 6.99L79.87 6.99L79.87 6.99Q79.87 8.05 79.83 8.79L79.83 8.79L79.83 8.79Q79.79 9.52 79.76 10.04L79.76 10.04L79.76 10.04Q79.74 10.57 79.76 10.93L79.76 10.93L79.76 10.93Q79.79 11.28 79.91 11.59L79.91 11.59L79.91 11.59Q80.01 11.79 80.12 11.97L80.12 11.97L80.12 11.97Q80.23 12.15 80.39 12.31L80.39 12.31L80.39 12.31Q80.54 12.47 80.74 12.58L80.74 12.58L80.74 12.58Q80.93 12.68 81.20 12.70L81.20 12.70L81.20 12.70Q80.67 13.08 80.25 13.40L80.25 13.40L80.25 13.40Q79.84 13.72 79.51 14.04L79.51 14.04L79.51 14.04Q79.24 13.90 79.03 13.69L79.03 13.69L79.03 13.69Q78.82 13.47 78.67 13.23L78.67 13.23L78.67 13.23Q78.53 12.99 78.43 12.75L78.43 12.75L78.43 12.75Q78.34 12.52 78.32 12.33L78.32 12.33L78.32 12.33Q78.29 11.80 78.30 11.30L78.30 11.30L78.30 11.30Q78.32 10.79 78.34 10.19L78.34 10.19L78.34 10.19Q78.37 9.59 78.39 8.82L78.39 8.82L78.39 8.82Q78.41 8.05 78.41 6.99ZM82.84 6.99L82.84 6.99L82.84 6.99Q82.84 5.42 82.84 4.28L82.84 4.28L82.84 4.28Q82.84 3.14 82.82 2.32L82.82 2.32L82.82 2.32Q82.81 1.50 82.75 0.95L82.75 0.95L82.75 0.95Q82.70 0.41 82.60 0.01L82.60 0.01L82.60 0.01Q83.57 0.01 84.23-0.34L84.23-0.34L84.23-0.34Q84.90-0.70 85.46-1.18L85.46-1.18L85.46-1.18Q85.18-0.77 84.98-0.45L84.98-0.45L84.98-0.45Q84.78-0.13 84.71 0.10L84.71 0.10L84.71 0.10Q84.56 0.59 84.48 1.33L84.48 1.33L84.48 1.33Q84.39 2.07 84.35 2.98L84.35 2.98L84.35 2.98Q84.31 3.89 84.30 4.91L84.30 4.91L84.30 4.91Q84.29 5.94 84.29 6.99L84.29 6.99L84.29 6.99Q84.29 8.05 84.25 8.79L84.25 8.79L84.25 8.79Q84.21 9.52 84.19 10.04L84.19 10.04L84.19 10.04Q84.17 10.57 84.19 10.93L84.19 10.93L84.19 10.93Q84.21 11.28 84.34 11.59L84.34 11.59L84.34 11.59Q84.43 11.79 84.55 11.97L84.55 11.97L84.55 11.97Q84.66 12.15 84.81 12.31L84.81 12.31L84.81 12.31Q84.97 12.47 85.16 12.58L85.16 12.58L85.16 12.58Q85.36 12.68 85.62 12.70L85.62 12.70L85.62 12.70Q85.09 13.08 84.68 13.40L84.68 13.40L84.68 13.40Q84.27 13.72 83.93 14.04L83.93 14.04L83.93 14.04Q83.66 13.90 83.45 13.69L83.45 13.69L83.45 13.69Q83.24 13.47 83.10 13.23L83.10 13.23L83.10 13.23Q82.95 12.99 82.86 12.75L82.86 12.75L82.86 12.75Q82.77 12.52 82.74 12.33L82.74 12.33L82.74 12.33Q82.71 11.80 82.73 11.30L82.73 11.30L82.73 11.30Q82.74 10.79 82.77 10.19L82.77 10.19L82.77 10.19Q82.80 9.59 82.82 8.82L82.82 8.82L82.82 8.82Q82.84 8.05 82.84 6.99Z"></path></g><!----><!----></svg>